<svg xmlns="http://www.w3.org/2000/svg" width="14in" height="4in" viewBox="0 0 2800 800"><g fill="#000"><g transform="translate(56.000,234.000) scale(0.250977,-0.250977)"><path d="M75 673Q73 681 74.5 689.5Q76 698 76 707Q76 715 73.5 722.0Q71 729 72 737Q79 753 90.5 754.5Q102 756 111 752Q112 749 114.0 746.0Q116 743 117 740Q115 738 112.0 739.0Q109 740 106 740Q98 737 95.0 730.0Q92 723 92 714Q91 703 92.5 689.0Q94 675 94 665Q95 655 90 653Q83 657 82.0 658.5Q81 660 81 663Q79 665 77.5 667.5Q76 670 75 673ZM1029 39Q1017 35 1009.0 38.0Q1001 41 994.0 46.5Q987 52 979.5 56.5Q972 61 962 60Q954 59 949.0 55.0Q944 51 939 47Q929 40 916 34Q906 34 898.0 35.0Q890 36 882 32Q870 34 862.0 33.0Q854 32 843 33Q840 34 834.5 32.5Q829 31 824 30Q820 29 816.0 29.5Q812 30 807 29Q803 29 799.0 28.0Q795 27 790 28Q770 29 755.0 28.5Q740 28 736 41Q734 46 734.0 52.0Q734 58 733 66Q731 81 728.5 100.0Q726 119 728 136Q729 147 728.0 159.0Q727 171 726 183Q726 217 718 249Q692 260 664 258Q656 258 650.0 257.0Q644 256 638 258Q632 259 626.5 260.0Q621 261 614 261Q606 261 597.5 259.0Q589 257 581 259Q576 260 572.0 262.5Q568 265 565 267Q559 274 557.0 281.5Q555 289 542 287Q537 279 534.0 272.0Q531 265 520 261Q515 260 511.0 260.0Q507 260 502 258Q496 256 489.5 253.0Q483 250 476 248Q475 240 476.5 233.0Q478 226 475 219Q473 214 470.0 210.0Q467 206 467 201Q467 198 470.0 193.5Q473 189 475 185Q476 178 474.5 169.0Q473 160 471 152Q470 149 470.0 146.0Q470 143 468 140Q463 120 468 111Q470 106 472.5 103.5Q475 101 477 97Q479 89 478.5 81.5Q478 74 479 66Q479 61 481.0 54.0Q483 47 481 42Q479 38 475.0 35.5Q471 33 469 28Q462 26 458.5 22.0Q455 18 450 15Q439 13 427.0 11.0Q415 9 404 13Q391 11 375.5 10.5Q360 10 347 8Q339 14 331.0 21.0Q323 28 310 20Q305 18 302.5 14.0Q300 10 295 8Q284 9 279.5 7.5Q275 6 272 6Q269 6 266.0 7.0Q263 8 260 8Q254 9 248.0 7.0Q242 5 234 6Q221 7 213.0 4.5Q205 2 197 4Q190 9 181.5 10.5Q173 12 167 17Q160 23 151 37Q145 61 143.5 86.5Q142 112 142.0 137.0Q142 162 141.0 186.0Q140 210 136 232Q125 232 116.0 232.5Q107 233 94 232Q85 232 75.5 232.5Q66 233 63 242Q61 244 61.0 249.0Q61 254 60 259Q59 267 59.0 272.0Q59 277 58 286Q57 301 63.0 307.5Q69 314 68 322Q68 325 64.5 328.0Q61 331 59 334Q54 347 56.0 361.0Q58 375 69 381Q79 386 91.0 389.0Q103 392 116 393Q121 393 125.0 393.0Q129 393 133 396Q132 408 133.0 418.5Q134 429 134 440Q134 454 132.0 466.5Q130 479 129 492Q129 495 130.0 498.0Q131 501 131 504Q130 510 128.5 515.5Q127 521 126 527Q127 542 124.5 562.0Q122 582 124 597Q125 606 126.5 609.5Q128 613 134 617Q137 633 130.5 640.5Q124 648 119 657Q119 676 118.0 692.5Q117 709 126 720Q128 722 131.0 723.5Q134 725 136 728Q150 736 165.0 738.0Q180 740 202 742Q207 742 211.0 743.0Q215 744 220 744Q226 745 232.5 744.0Q239 743 245 743Q250 743 254.0 743.5Q258 744 263 744Q274 745 287.0 745.0Q300 745 314 746Q317 746 320.0 747.5Q323 749 325 749Q332 748 334.0 749.0Q336 750 338 750Q343 751 350.0 750.5Q357 750 364 752Q376 747 380.0 741.5Q384 736 391 733Q407 733 421 742Q425 740 428.5 741.5Q432 743 436 743Q442 742 448.0 737.0Q454 732 455 728Q454 713 454.0 704.0Q454 695 455 687Q456 677 458.0 665.0Q460 653 460 642Q460 632 459.0 622.0Q458 612 459 604Q460 592 459.0 589.0Q458 586 457 584Q453 571 451.5 569.0Q450 567 449 565Q447 560 450.0 552.5Q453 545 455 539Q462 527 461.5 523.5Q461 520 461 516Q461 508 463.0 499.0Q465 490 465 482Q466 464 466.5 444.5Q467 425 469 408Q485 401 507.0 404.0Q529 407 550 409Q555 409 560.5 408.5Q566 408 571 408Q577 409 582.5 409.5Q588 410 594 411Q608 412 622.5 413.0Q637 414 651 414Q662 414 669.5 414.5Q677 415 688 416Q696 417 706.0 417.5Q716 418 719 425Q717 434 715.5 444.0Q714 454 716 462Q722 480 722.5 488.0Q723 496 725 503Q727 508 728.5 513.0Q730 518 729 526Q727 537 722.5 545.5Q718 554 713 564Q712 587 713.5 611.5Q715 636 712 662Q710 670 709.0 677.5Q708 685 707 693Q706 698 704.0 702.0Q702 706 703 710Q703 713 706.5 717.0Q710 721 712 725Q714 728 717.0 732.0Q720 736 723 738Q727 740 732.5 740.5Q738 741 743 743Q749 745 754.0 748.5Q759 752 761 752Q764 753 767.5 752.0Q771 751 774 751Q780 752 786.5 754.0Q793 756 799 756Q803 756 806.5 755.0Q810 754 813 754Q818 754 823.0 755.5Q828 757 834 757Q840 758 846.0 756.5Q852 755 857 756Q861 757 864.0 758.0Q867 759 871 759Q880 760 888.5 759.0Q897 758 905 758Q907 761 913.5 760.0Q920 759 922 761Q927 759 931.0 760.5Q935 762 940 761Q945 761 949.5 756.0Q954 751 958 748Q963 743 967.5 739.5Q972 736 977 734Q988 734 1002 731Q1007 729 1014.0 728.0Q1021 727 1024 724Q1028 719 1028.0 709.0Q1028 699 1030 690Q1034 661 1033.0 639.5Q1032 618 1034 594Q1036 580 1036.5 566.0Q1037 552 1038 538Q1039 527 1038.0 516.0Q1037 505 1037 494Q1038 483 1039.5 469.0Q1041 455 1041 444Q1041 433 1040.5 420.5Q1040 408 1042 394Q1024 373 1031 346Q1033 341 1035.5 338.0Q1038 335 1040 331Q1045 323 1046.0 316.0Q1047 309 1047 298Q1048 287 1048.5 274.5Q1049 262 1047 251Q1051 232 1051.5 213.5Q1052 195 1053 173Q1053 165 1052.5 156.5Q1052 148 1053 140Q1054 137 1053.5 134.0Q1053 131 1054 127Q1054 124 1055.0 120.5Q1056 117 1056 114Q1056 111 1055.0 107.5Q1054 104 1054 101Q1062 75 1050.0 61.5Q1038 48 1029 39ZM146 278Q146 280 143.5 285.5Q141 291 139 293Q137 296 135.0 297.5Q133 299 131 301Q124 301 120.0 306.0Q116 311 108 309Q100 306 100.0 293.0Q100 280 104 273Q109 272 111.5 269.5Q114 267 118 266Q126 265 135.5 269.0Q145 273 146 278ZM236 672Q242 676 246.0 685.5Q250 695 245 703Q236 702 225.5 703.0Q215 704 204.5 704.5Q194 705 184.0 703.5Q174 702 167 696Q162 690 164.5 682.5Q167 675 169 669Q171 662 171.5 656.5Q172 651 176 649Q186 649 195 656Q198 659 199.5 664.0Q201 669 203 671Q209 676 217.5 673.0Q226 670 236 672ZM330 61Q335 69 331.0 74.5Q327 80 324 83Q318 84 312.0 82.0Q306 80 304 76Q298 65 309.5 62.5Q321 60 330 61ZM317 690Q317 698 309.0 702.0Q301 706 293 706Q285 702 278.0 697.5Q271 693 272 686Q272 682 280.5 676.0Q289 670 292 670Q300 669 308.0 676.0Q316 683 317 690ZM425 78Q427 81 426.0 84.0Q425 87 425 90Q425 96 424.5 104.0Q424 112 422.5 119.5Q421 127 417.0 131.5Q413 136 406 134Q400 116 398.0 104.5Q396 93 388 85Q380 84 375.5 73.5Q371 63 379 57Q384 53 396.0 54.0Q408 55 413 58Q415 59 416.0 62.5Q417 66 419 68Q421 70 423.0 73.0Q425 76 425 78ZM782 369Q785 372 789.0 379.0Q793 386 795.5 394.5Q798 403 798.0 411.0Q798 419 794 425Q789 430 782.0 430.5Q775 431 771 426Q767 416 766.0 406.5Q765 397 760 390Q754 382 743.0 380.0Q732 378 721 373Q719 366 723.5 361.0Q728 356 733 356Q752 360 762.5 362.5Q773 365 782 369ZM809 688Q818 690 821 696Q820 701 819.0 707.0Q818 713 813 715Q799 713 791.5 713.5Q784 714 776 713Q763 712 755.0 701.5Q747 691 751 677Q753 671 756.5 661.0Q760 651 767 650Q771 650 774.0 653.0Q777 656 781 658Q781 677 788 682Q792 684 795.0 683.5Q798 683 803 684ZM883 697Q883 704 881.5 709.0Q880 714 874 716Q860 712 855.0 706.0Q850 700 849 690Q857 687 866.5 689.5Q876 692 883 697ZM1010 103Q1012 112 1010.5 119.5Q1009 127 1008 134Q997 137 990.0 129.5Q983 122 985 113Q989 104 989.5 102.0Q990 100 995 99Q999 101 1002.0 101.0Q1005 101 1010 103ZM990 749Q987 751 984.5 753.5Q982 756 979 758Q984 772 992.5 770.5Q1001 769 1010 768Q1020 768 1022.0 767.0Q1024 766 1026 765Q1034 763 1044.0 759.5Q1054 756 1056 748Q1058 737 1053.5 731.0Q1049 725 1051 713Q1039 713 1039.5 721.5Q1040 730 1039 739Q1034 742 1030.0 740.0Q1026 738 1021 739Q1009 744 1002.0 745.0Q995 746 990 749ZM625 433Q621 451 627.5 453.0Q634 455 644 459Q648 461 653.0 462.0Q658 463 663 465Q666 467 671.0 472.0Q676 477 678 481Q682 492 680.5 504.5Q679 517 683 529Q677 529 674.5 532.0Q672 535 672.5 539.5Q673 544 675.5 548.0Q678 552 682 553Q686 551 689.0 548.5Q692 546 695 544Q695 541 694.0 538.0Q693 535 694 532Q695 527 698.0 523.0Q701 519 702 514Q703 507 701.5 499.0Q700 491 699 485Q697 476 696.0 467.5Q695 459 690 451Q678 443 660.5 439.0Q643 435 625 433ZM1091 298Q1096 293 1098.5 279.0Q1101 265 1100 254Q1099 245 1096.0 237.5Q1093 230 1089 225Q1085 227 1082.0 228.0Q1079 229 1077 231Q1075 236 1077.0 240.5Q1079 245 1079 250Q1074 263 1075.5 269.0Q1077 275 1077 281Q1076 286 1076.0 291.5Q1076 297 1080 299Q1082 300 1085.5 299.5Q1089 299 1091 298ZM103 195Q105 187 98.5 182.5Q92 178 82.5 176.5Q73 175 63.0 176.0Q53 177 48 180Q39 183 36 184Q36 196 30.0 213.0Q24 230 26 242Q27 247 31.5 250.0Q36 253 41 250Q43 244 42.5 237.5Q42 231 44 226Q46 218 55.0 211.5Q64 205 72 200Q76 200 81.0 200.5Q86 201 90.5 201.0Q95 201 98.5 200.0Q102 199 103 195ZM646 233Q648 231 649.5 226.5Q651 222 649 219Q627 213 602.5 216.0Q578 219 552 222Q540 219 526.5 217.0Q513 215 504 221Q502 229 506.0 234.0Q510 239 518 241Q524 243 529 243Q536 244 536.5 245.0Q537 246 539 248Q547 256 558 255Q560 252 561.0 248.0Q562 244 566 242Q575 244 584.5 243.5Q594 243 600 238Q611 238 622.5 234.5Q634 231 646 233ZM1084 190Q1089 192 1095 190Q1099 181 1098.5 169.0Q1098 157 1098 144Q1098 127 1098.5 108.0Q1099 89 1098 70Q1098 59 1098.5 49.0Q1099 39 1097 32Q1096 30 1093.5 27.5Q1091 25 1089 22Q1085 17 1083.5 12.5Q1082 8 1078 6Q1071 1 1061.5 1.5Q1052 2 1040 0Q1034 -1 1020.0 -4.0Q1006 -7 997 -2Q991 9 990.0 11.0Q989 13 991 16Q999 21 1008.5 18.5Q1018 16 1027 17Q1038 19 1047.0 23.0Q1056 27 1064 29Q1071 37 1077.0 47.0Q1083 57 1082 73Q1081 77 1080.0 81.0Q1079 85 1079 89Q1078 97 1078.5 105.0Q1079 113 1079 121Q1080 130 1081.0 140.0Q1082 150 1083 160Q1083 168 1082.5 175.5Q1082 183 1084 190ZM236 -9Q241 -9 253.0 -7.0Q265 -5 266 -10Q268 -15 262.5 -20.5Q257 -26 253 -27Q244 -29 236.5 -27.5Q229 -26 219 -25Q215 -25 211.0 -26.0Q207 -27 203 -27Q182 -26 169.0 -28.5Q156 -31 143 -26Q135 -28 131.0 -23.5Q127 -19 121 -19Q118 -12 115.0 -2.5Q112 7 112 18Q112 32 109.5 45.0Q107 58 104 70Q106 75 110.0 81.0Q114 87 121 82Q125 73 123.0 62.5Q121 52 124 43Q125 38 128.5 34.0Q132 30 131 25Q136 17 141.5 10.0Q147 3 155 -2Q159 -1 161.5 -3.0Q164 -5 167 -6Q180 -7 183.0 -8.5Q186 -10 189 -11Q197 -12 206.0 -9.5Q215 -7 223 -8Q226 -8 229.0 -8.5Q232 -9 236 -9Z"/></g><g transform="translate(347.391,234.000) scale(0.250977,-0.250977)"><path d="M1099 328Q1099 325 1097.5 321.0Q1096 317 1096 314Q1095 308 1095.0 303.5Q1095 299 1091 294Q1093 287 1090.5 279.5Q1088 272 1090 266Q1082 255 1080.5 241.5Q1079 228 1075 216Q1073 211 1071.0 206.5Q1069 202 1067 197Q1064 189 1061.5 183.0Q1059 177 1056 171Q1049 161 1048.5 158.0Q1048 155 1046 152Q1041 144 1034.0 137.5Q1027 131 1024 122Q1020 118 1016.0 114.0Q1012 110 1009 105Q989 92 974.0 75.5Q959 59 939 46Q917 37 899.5 24.0Q882 11 859 3Q850 -3 839.5 -6.0Q829 -9 817 -14Q812 -16 805.5 -19.0Q799 -22 792 -23Q788 -23 785.5 -22.5Q783 -22 780 -22Q777 -23 774.5 -24.5Q772 -26 769 -27Q765 -28 761.0 -28.0Q757 -28 752 -30Q739 -35 735.0 -34.5Q731 -34 726 -35Q701 -38 673.5 -38.0Q646 -38 621 -42Q615 -39 606.0 -40.0Q597 -41 587.5 -42.5Q578 -44 568.5 -44.5Q559 -45 551 -42Q546 -40 542.5 -35.5Q539 -31 534 -28Q529 -25 524.0 -23.5Q519 -22 514 -20Q502 -24 489.0 -29.5Q476 -35 462 -33Q448 -30 444.0 -30.0Q440 -30 436 -30Q419 -30 402.5 -28.5Q386 -27 370 -22Q336 -17 307.0 -2.5Q278 12 248 23Q236 31 226.0 40.0Q216 49 202 55Q188 70 174.0 83.0Q160 96 145 110Q139 119 133.5 129.0Q128 139 122 150Q117 161 112.0 172.0Q107 183 101 194Q90 210 87.5 220.0Q85 230 82 241Q80 246 77.5 250.5Q75 255 73 260Q71 265 69.0 274.0Q67 283 70 288Q65 295 64.0 307.0Q63 319 65 330Q66 344 63.5 360.5Q61 377 65 389Q69 403 76.5 413.0Q84 423 81 439Q79 450 75.5 455.5Q72 461 76 474Q77 477 77.5 480.5Q78 484 80 487Q82 492 84.5 497.0Q87 502 87 510Q95 522 104.0 533.5Q113 545 122 556Q126 561 129.0 565.5Q132 570 137 575Q142 580 146 582Q151 585 156.5 586.0Q162 587 167 589Q174 593 179.0 598.5Q184 604 189 611Q197 622 202.5 632.5Q208 643 216 656Q221 659 227.0 662.5Q233 666 238 671Q249 676 259.5 684.0Q270 692 283 699Q288 702 294.5 705.0Q301 708 308 712Q319 717 327.5 721.0Q336 725 347 728Q379 738 420 744Q426 746 430.0 746.0Q434 746 440 748Q457 749 473.0 752.5Q489 756 506 757Q514 758 521.5 758.5Q529 759 538 760Q543 761 549.0 762.0Q555 763 560 763Q564 763 568.0 762.0Q572 761 577 761Q587 761 597.0 762.0Q607 763 616 762Q630 762 642.5 760.5Q655 759 671 757Q682 755 693.5 752.0Q705 749 716 745Q724 742 731.5 739.5Q739 737 749 736Q755 729 763.0 726.0Q771 723 780 720Q788 718 793.5 714.5Q799 711 806 709Q822 706 837.0 705.5Q852 705 865 698Q869 696 872.0 693.0Q875 690 880 688Q884 686 887.5 684.0Q891 682 895 680Q899 678 902.0 676.0Q905 674 909 672Q913 670 917.5 668.0Q922 666 926 664Q928 662 930.5 659.0Q933 656 935 654Q941 649 948.0 644.5Q955 640 962 635Q973 621 987.0 611.0Q1001 601 1014 589Q1016 587 1018.0 584.0Q1020 581 1022 579Q1024 575 1026.0 573.0Q1028 571 1030 569Q1033 564 1035.5 559.0Q1038 554 1043 551Q1048 543 1051.0 536.5Q1054 530 1059 522Q1061 518 1064.0 516.5Q1067 515 1067 511Q1068 506 1065.0 498.5Q1062 491 1065 484Q1067 480 1071.0 478.5Q1075 477 1078 475Q1083 468 1087.0 462.5Q1091 457 1092 447Q1093 444 1092.0 440.5Q1091 437 1091 433Q1092 427 1094.5 421.0Q1097 415 1098 408Q1099 404 1098.5 400.0Q1098 396 1098 393Q1098 379 1091.5 372.5Q1085 366 1087 354Q1089 351 1091.0 349.5Q1093 348 1095 345Q1097 343 1098.0 337.5Q1099 332 1099 328ZM190 528Q197 527 201.0 533.5Q205 540 207 548Q205 553 200.0 555.0Q195 557 195 564Q187 561 180.5 555.5Q174 550 176 538Q181 538 183.0 533.5Q185 529 190 528ZM300 639Q301 645 296.5 648.0Q292 651 289 656Q285 654 280.0 652.5Q275 651 271 649Q260 644 252.5 634.0Q245 624 238 613Q233 606 228.0 599.5Q223 593 226 585Q229 583 233.5 582.0Q238 581 240 579Q246 582 249.0 587.5Q252 593 255.0 598.5Q258 604 261.0 609.5Q264 615 269 618Q274 623 286.0 627.0Q298 631 300 639ZM314 287Q312 284 311.0 279.5Q310 275 311 270Q316 265 323.0 267.0Q330 269 330 274Q331 279 326.0 284.0Q321 289 314 287ZM341 120Q346 118 352.5 115.5Q359 113 361 122Q356 127 350.5 136.0Q345 145 344 156Q342 169 343.5 184.5Q345 200 340 211Q339 216 333.5 224.5Q328 233 325 234Q320 236 315.5 234.5Q311 233 307 231Q306 228 304 220Q306 212 312.5 204.5Q319 197 324 189Q329 177 327.5 170.0Q326 163 326 156Q326 145 330.0 136.5Q334 128 341 120ZM436 -4Q446 -3 454.0 -1.5Q462 0 467 5Q460 16 453.0 19.5Q446 23 438 23Q422 23 408.0 21.0Q394 19 388 9Q395 2 409.0 -1.0Q423 -4 436 -4ZM791 360Q792 366 792.0 371.0Q792 376 792 381Q793 395 792.0 408.0Q791 421 786 431Q784 435 782.5 437.5Q781 440 780 445Q780 456 781.0 467.5Q782 479 782 490Q782 509 780.0 526.5Q778 544 776 559Q765 580 754.5 589.5Q744 599 729 604Q721 606 713.5 605.5Q706 605 698 608Q694 610 692.0 613.0Q690 616 686 618Q672 626 660.0 619.5Q648 613 637 608Q619 611 601.0 610.5Q583 610 566 612Q561 612 557.5 617.0Q554 622 549 624Q542 626 535.5 625.0Q529 624 525 622Q521 618 518.5 615.0Q516 612 512 610Q508 609 503.5 610.0Q499 611 495 611Q485 610 475.0 606.5Q465 603 457 601Q449 599 445.0 598.5Q441 598 436 595Q422 589 414 581Q415 576 411.0 574.0Q407 572 404 569Q400 564 399.0 558.5Q398 553 394 548Q396 533 393.0 519.5Q390 506 389 490Q387 474 387.5 456.0Q388 438 388 424Q388 420 389.0 416.5Q390 413 390 409Q389 399 389.5 395.5Q390 392 390 387Q390 380 388.5 376.0Q387 372 385 366Q379 351 373 339Q369 316 364.0 289.0Q359 262 367 242Q369 238 373.0 235.5Q377 233 379 230Q381 228 381.5 223.5Q382 219 383 214Q387 199 388.0 181.0Q389 163 397 152Q407 141 421 133Q426 131 430.0 129.0Q434 127 439 125Q454 120 472.0 120.5Q490 121 507 119Q521 116 527.5 117.0Q534 118 541 117Q544 116 552 114Q555 113 558.5 112.5Q562 112 565 111Q570 110 575.0 110.5Q580 111 585 111Q593 109 597 109Q611 109 626.0 113.0Q641 117 655 117Q661 117 666.0 116.0Q671 115 675 115Q698 117 711.0 118.5Q724 120 732 125Q737 128 746.5 134.0Q756 140 759 144Q761 147 762.5 151.5Q764 156 766 159Q769 162 772.0 163.5Q775 165 777 169Q780 175 780.0 186.5Q780 198 781 206Q782 216 782.5 226.0Q783 236 783 246Q783 254 784.0 262.5Q785 271 786 280Q787 291 785.0 303.0Q783 315 784 328Q784 338 786.0 345.5Q788 353 791 360ZM844 530Q850 540 850 557Q845 565 841.5 575.5Q838 586 833 594Q826 596 819.0 600.5Q812 605 807 597Q809 590 813.5 585.0Q818 580 820 569Q820 565 819.0 562.5Q818 560 819 556Q819 550 819.5 538.0Q820 526 824 525Q829 523 834.0 526.5Q839 530 844 530ZM992 145Q1003 159 1013.5 171.5Q1024 184 1026 206Q1018 211 1011.5 209.0Q1005 207 1000.0 202.0Q995 197 991.5 190.0Q988 183 985 178Q979 169 970.5 161.0Q962 153 954 145Q947 145 942.0 140.0Q937 135 935.5 128.5Q934 122 936.5 116.0Q939 110 945 108Q948 106 951.0 107.5Q954 109 959 109Q964 113 969.0 115.5Q974 118 977 123Q980 130 982.0 131.0Q984 132 986 134Q990 142 992 145ZM1044 253Q1050 263 1043.5 271.5Q1037 280 1028 278Q1022 276 1019.0 269.5Q1016 263 1017.0 256.0Q1018 249 1022.0 245.0Q1026 241 1033 243Q1035 244 1038.5 247.5Q1042 251 1044 253ZM77 532Q76 548 81.0 555.0Q86 562 91 569Q95 576 97.5 583.0Q100 590 103 596Q107 601 114.5 606.5Q122 612 127 617Q132 622 135.0 627.5Q138 633 143 638Q154 659 171 670Q191 693 216 703Q220 696 218.5 693.0Q217 690 216 685Q198 669 186 650Q176 641 172.5 633.5Q169 626 162 623Q159 621 156.5 621.0Q154 621 151 618Q147 615 143.0 610.5Q139 606 135 601Q131 596 127.0 592.0Q123 588 120 583Q110 568 103.0 561.0Q96 554 92 547Q89 542 86.5 538.0Q84 534 77 532ZM734 487Q736 502 737.0 510.5Q738 519 737 526Q734 535 734.5 537.0Q735 539 733 542Q729 549 721.5 552.5Q714 556 705 558Q699 560 693.0 562.5Q687 565 681 566Q674 568 667.0 566.5Q660 565 652 566Q639 568 633.5 566.0Q628 564 623 564Q615 564 607.5 568.5Q600 573 599 579Q599 583 601.5 586.0Q604 589 604 591Q609 596 614.0 593.0Q619 590 624 589Q630 587 637.0 589.5Q644 592 652 591Q655 591 658.0 590.0Q661 589 666 589Q673 588 678.5 589.0Q684 590 690 590Q693 590 696.0 589.0Q699 588 703 587Q711 587 714 586Q721 581 723.5 581.0Q726 581 728 580Q733 578 736.0 574.0Q739 570 744 568Q747 559 749.5 557.5Q752 556 754 554Q753 550 754.0 546.5Q755 543 755 539Q753 532 751.0 526.5Q749 521 748 515Q746 504 749.0 492.5Q752 481 749 470Q738 476 737.0 479.5Q736 483 734 487ZM745 443Q753 440 759.5 430.0Q766 420 762 410Q760 405 756.5 398.0Q753 391 751 391Q747 391 741.5 397.0Q736 403 736 407Q735 412 737.0 419.0Q739 426 740 431Q741 436 741.0 438.5Q741 441 745 443ZM53 455Q54 436 52.5 423.0Q51 410 43 402Q32 400 31.5 410.0Q31 420 32 428Q32 435 31.5 440.5Q31 446 36 452Q39 457 43.5 456.0Q48 455 53 455ZM1068 127Q1062 133 1069.5 139.5Q1077 146 1082 145Q1084 140 1084.5 136.0Q1085 132 1083 128Q1081 124 1075.5 124.5Q1070 125 1068 127ZM1040 105Q1045 108 1051.5 108.5Q1058 109 1062 105Q1060 98 1057.5 91.5Q1055 85 1051 80Q1039 70 1036.5 65.5Q1034 61 1031 58Q1023 51 1014.5 45.5Q1006 40 999 31Q985 25 972.5 15.0Q960 5 940 8Q935 14 939.5 18.5Q944 23 949 25Q954 32 962.0 35.5Q970 39 974 47Q1003 62 1026 84Q1028 89 1031.5 96.0Q1035 103 1040 105ZM242 4Q250 -1 256.0 -6.0Q262 -11 251 -17Q233 -16 222.5 -6.5Q212 3 197 8Q192 13 187.5 16.5Q183 20 180 25Q180 33 181 36Q183 41 189.5 39.5Q196 38 201 35Q211 26 214.5 25.5Q218 25 220 23Q226 15 230 12Q238 6 242 4ZM665 -71Q669 -69 675.5 -68.5Q682 -68 687 -70Q691 -78 684.5 -82.0Q678 -86 673 -89Q665 -87 655.0 -87.5Q645 -88 635 -87Q626 -85 617.5 -82.0Q609 -79 600 -79Q589 -93 574.0 -93.0Q559 -93 548 -92Q539 -91 528.0 -89.5Q517 -88 506 -87Q492 -85 477.0 -84.5Q462 -84 450 -82Q438 -79 435.0 -79.5Q432 -80 428 -80Q422 -79 415.5 -77.5Q409 -76 401 -75Q394 -73 387.5 -73.0Q381 -73 375 -71Q364 -69 353.5 -63.0Q343 -57 332 -55Q325 -53 317.5 -52.0Q310 -51 304 -49Q298 -47 293.0 -42.0Q288 -37 283 -35Q280 -30 278.5 -22.5Q277 -15 285 -13Q299 -22 316.0 -28.0Q333 -34 347 -42Q360 -44 371.5 -47.0Q383 -50 397 -52Q415 -54 422.0 -55.5Q429 -57 438 -58Q452 -60 466.0 -58.5Q480 -57 497 -54Q503 -52 511.5 -55.5Q520 -59 526 -61Q529 -63 533.5 -64.0Q538 -65 541 -67Q544 -69 549.0 -70.5Q554 -72 560 -73Q563 -73 566.0 -72.5Q569 -72 572 -72Q577 -72 581.5 -72.5Q586 -73 588 -73Q604 -69 610.0 -71.0Q616 -73 622 -73Q637 -68 647.0 -69.0Q657 -70 665 -71Z"/></g><g transform="translate(637.266,234.000) scale(0.250977,-0.250977)"><path d="M228 764Q229 756 224.5 752.5Q220 749 214.0 749.0Q208 749 203.0 753.0Q198 757 199 763Q203 768 213.5 769.5Q224 771 228 764ZM70 624Q68 621 63.5 618.5Q59 616 54 621Q49 625 47.5 642.0Q46 659 46 670Q46 687 46.5 710.5Q47 734 52 748Q55 749 58.0 751.0Q61 753 65 754Q76 755 79.0 756.5Q82 758 85 759Q89 759 92.0 758.5Q95 758 99 758Q103 759 107.0 759.5Q111 760 115 761Q125 761 129 762Q134 763 137.5 764.0Q141 765 144 766Q152 767 159.5 763.5Q167 760 169 755Q170 747 163.5 741.0Q157 735 151 734Q142 732 136.0 735.0Q130 738 123 739Q117 740 111.5 738.5Q106 737 99 738Q93 734 85.0 733.0Q77 732 72 727Q68 716 70.5 703.5Q73 691 68 683Q70 666 67.5 653.0Q65 640 70 624ZM884 -3Q879 0 873.0 -1.5Q867 -3 861 -4Q855 -5 849.5 -4.5Q844 -4 838 -4Q826 -5 815.0 -7.0Q804 -9 794 -3Q771 13 757.5 33.0Q744 53 727 72Q723 80 725.5 87.0Q728 94 726 102Q725 107 721.5 114.5Q718 122 715 125Q709 133 698.0 137.0Q687 141 678 146Q670 155 665.5 165.5Q661 176 653 184Q648 192 641.5 199.5Q635 207 630 215Q626 222 623.0 228.5Q620 235 615 242Q598 247 581.0 244.5Q564 242 548 243Q541 244 535 243Q524 242 513.0 243.5Q502 245 491.5 245.5Q481 246 471.5 245.5Q462 245 454 240Q450 231 449.0 232.0Q448 233 445 233Q440 220 442.0 206.0Q444 192 446 176Q449 158 446.0 136.0Q443 114 445 93Q445 88 445.5 82.0Q446 76 446 71Q446 62 443.5 54.0Q441 46 440 38Q433 37 421 30Q419 28 415.5 26.0Q412 24 410 22Q405 17 403.0 11.0Q401 5 397 1Q389 -7 377.0 -6.0Q365 -5 351 -7Q348 -7 344.5 -7.5Q341 -8 338 -8Q327 -10 316.0 -9.5Q305 -9 294 -9Q289 -9 283.5 -10.5Q278 -12 273 -12Q270 -12 267.0 -11.5Q264 -11 261 -11Q258 -11 254.5 -12.0Q251 -13 248 -13Q242 -13 235.5 -13.5Q229 -14 224 -14Q216 -15 207.5 -15.5Q199 -16 190 -14Q185 -14 180.5 -12.0Q176 -10 171 -8Q166 -6 161.5 -6.5Q157 -7 153 -6Q141 -2 134.0 6.5Q127 15 116 20Q114 26 114.0 31.0Q114 36 113 42Q115 44 115.5 47.5Q116 51 118 54Q118 74 110 87Q107 90 104.0 92.5Q101 95 100 100Q99 108 101.0 117.0Q103 126 105 135Q107 144 107.0 153.0Q107 162 109 170Q113 183 111.5 189.0Q110 195 109 198Q108 202 105.0 204.5Q102 207 101 210Q100 213 100.5 216.5Q101 220 100 223Q100 231 100.5 239.0Q101 247 100 254Q99 261 97.5 273.0Q96 285 98 293Q99 297 102.5 300.0Q106 303 109.5 306.0Q113 309 115.0 313.5Q117 318 116 326Q114 337 108 347Q97 365 95.0 378.0Q93 391 92 403Q91 412 90.0 421.0Q89 430 89 439Q87 488 88.5 534.5Q90 581 90 632Q92 653 91.0 669.5Q90 686 93 697Q97 715 118 718Q126 715 138.0 713.0Q150 711 162 716Q166 717 168.0 720.5Q170 724 174 726Q187 731 193.0 734.0Q199 737 205 736Q220 731 224.0 733.0Q228 735 233 735Q237 736 241.0 735.5Q245 735 249 735Q254 736 258.0 736.5Q262 737 266 737Q270 737 273.0 736.0Q276 735 280 735Q285 735 291.0 735.5Q297 736 302 736Q306 736 309.5 735.0Q313 734 317 734Q325 735 332.5 736.5Q340 738 347 740Q354 736 362.0 738.0Q370 740 379 739Q392 735 398.5 736.0Q405 737 411 737Q422 737 432.5 735.5Q443 734 453 735Q458 735 463.0 735.5Q468 736 473 736Q478 736 483.0 735.5Q488 735 493 735Q502 736 511.0 737.5Q520 739 529 740Q548 741 568.5 740.5Q589 740 609 742Q613 743 617.0 743.5Q621 744 625 745Q632 745 642.0 744.5Q652 744 662 744Q673 744 676.0 740.5Q679 737 682 735Q691 728 704.0 723.0Q717 718 731 722Q738 724 745.5 728.5Q753 733 760 737Q768 741 777.0 740.0Q786 739 795 739Q798 739 801.0 740.0Q804 741 807 741Q813 741 819.0 740.0Q825 739 831 738Q834 738 837.0 738.5Q840 739 843 738Q861 736 878.0 729.0Q895 722 910 717Q930 700 941.5 686.5Q953 673 964 659Q973 643 980.5 625.0Q988 607 990 584Q992 550 992.5 518.5Q993 487 993 453Q993 446 992.5 440.5Q992 435 993 430Q994 419 992.5 410.0Q991 401 989 390Q988 383 988.5 376.5Q989 370 987 364Q980 346 977.5 338.0Q975 330 970 323Q967 318 960.0 314.5Q953 311 949 311Q936 310 934.5 307.0Q933 304 931 301Q929 297 927.5 295.0Q926 293 925 289Q918 284 911.0 279.0Q904 274 898 268Q878 265 861.5 260.0Q845 255 828 250Q833 238 841.0 228.0Q849 218 854 207Q865 181 879 162Q883 155 888.5 148.5Q894 142 899 136L911 118Q917 110 921.0 102.5Q925 95 929 86Q931 83 932.5 80.0Q934 77 934 73Q940 62 946.0 51.0Q952 40 958 29Q963 30 966.0 31.0Q969 32 974 32Q972 30 968.0 29.0Q964 28 962 25Q961 22 959.0 16.5Q957 11 953 7Q945 2 937.0 1.0Q929 0 920.0 0.0Q911 0 902.0 0.0Q893 0 884 -3ZM188 652Q190 656 189.5 664.0Q189 672 186 674Q179 679 170.5 676.5Q162 674 153 675Q134 676 131.5 669.0Q129 662 127 654Q124 644 123.0 638.0Q122 632 124 624Q126 613 127.5 606.5Q129 600 137 597Q142 603 142.5 613.5Q143 624 146 632Q151 636 156.5 637.5Q162 639 168 642Q172 644 179.0 646.5Q186 649 188 652ZM257 668Q258 677 247 684Q232 683 229.5 677.0Q227 671 226 663Q231 658 243.0 658.5Q255 659 257 668ZM282 28Q291 32 288.5 41.5Q286 51 274 50Q266 45 268.5 36.0Q271 27 282 28ZM388 58Q397 69 392.5 78.0Q388 87 376 86Q370 82 366.5 76.5Q363 71 359.0 65.5Q355 60 349.0 57.0Q343 54 333 56Q329 52 325.0 48.5Q321 45 322 36Q324 31 328.5 29.5Q333 28 337 26Q342 28 349.0 27.5Q356 27 361 31Q364 33 367.5 37.5Q371 42 374 46Q378 50 382.0 53.0Q386 56 388 58ZM651 411Q657 418 661.5 428.0Q666 438 667 447Q668 456 667.5 465.0Q667 474 669 484Q670 488 672.5 491.0Q675 494 677 497Q683 508 684 516Q685 527 681.0 532.5Q677 538 673 543Q671 547 669.0 550.5Q667 554 665 556Q664 564 663.5 572.5Q663 581 659 588Q651 594 636.5 599.0Q622 604 609 601Q596 597 584.5 598.0Q573 599 559 600Q556 600 553.5 599.0Q551 598 548 598Q538 596 527.5 597.0Q517 598 507 599Q499 596 490.0 596.5Q481 597 471.5 597.5Q462 598 453.0 597.0Q444 596 438 590Q435 583 436.5 572.5Q438 562 436 552Q431 549 428.0 545.5Q425 542 424 536Q428 523 440 517Q442 510 441.5 502.5Q441 495 440 487Q440 471 442.5 453.5Q445 436 444 420Q443 412 442.0 403.5Q441 395 447 390Q457 388 465.5 388.5Q474 389 483 389Q493 387 500 387Q504 388 508.0 389.5Q512 391 517 392Q523 392 528.5 391.5Q534 391 541 391Q552 392 564.0 393.5Q576 395 589 391Q597 393 602.5 392.0Q608 391 615 393Q633 398 643 406ZM722 365Q727 376 729.0 389.0Q731 402 731 416Q729 419 727.0 421.5Q725 424 723 426Q718 415 712.5 404.0Q707 393 699 385Q695 380 689.5 379.0Q684 378 679 373Q667 367 663.0 363.0Q659 359 658 352Q666 347 671.0 341.0Q676 335 686 337Q697 339 707.0 348.5Q717 358 722 365ZM733 464Q737 465 739.5 470.0Q742 475 741.5 481.0Q741 487 738.5 491.0Q736 495 730 495Q728 493 723.5 489.0Q719 485 717 480Q715 475 716.5 470.0Q718 465 724 464ZM996 655Q994 673 985.5 684.5Q977 696 966 707Q966 712 963.5 716.5Q961 721 967 723Q982 725 992.5 715.0Q1003 705 1011 693Q1013 688 1013.5 686.0Q1014 684 1016 679Q1018 677 1019.0 672.5Q1020 668 1018 663Q1017 660 1012.5 655.5Q1008 651 1005 651ZM516 575Q514 562 503.0 560.0Q492 558 487 551Q483 528 475 515Q462 520 460.5 530.5Q459 541 461.5 551.5Q464 562 470.0 569.5Q476 577 486 577Q497 575 504.0 577.5Q511 580 516 575ZM1033 400Q1033 395 1032.0 392.0Q1031 389 1030 385Q1030 382 1030.5 379.5Q1031 377 1031 374Q1030 367 1028.0 360.5Q1026 354 1024 348Q1023 331 1016.0 318.0Q1009 305 1001 293Q998 292 995.5 288.5Q993 285 989 282Q985 280 981.0 277.5Q977 275 974 272Q972 270 970.5 267.5Q969 265 967 263Q964 261 958.5 258.5Q953 256 951 257Q942 268 945.0 271.0Q948 274 950 279Q952 283 953.0 286.5Q954 290 956 293Q967 297 976.0 302.5Q985 308 994 313Q998 321 1003.0 330.0Q1008 339 1009 350Q1010 352 1009.5 355.5Q1009 359 1009 362Q1011 370 1013.0 379.5Q1015 389 1016 396Q1017 402 1016.0 408.0Q1015 414 1015 420Q1015 430 1017.0 439.0Q1019 448 1021 458Q1029 458 1029.5 453.5Q1030 449 1031 441Q1033 431 1033.0 421.5Q1033 412 1033 400ZM500 221Q505 221 511.5 221.5Q518 222 522.5 221.0Q527 220 529.0 217.5Q531 215 528 209Q523 210 517.5 208.0Q512 206 507 206Q494 208 490.5 205.5Q487 203 482 202Q481 190 480.0 177.5Q479 165 468 162Q460 167 460.0 179.0Q460 191 460 199Q461 213 470.0 218.5Q479 224 493 223ZM88 8Q99 0 109.0 -9.0Q119 -18 133 -24Q125 -30 119.5 -32.0Q114 -34 108 -33Q99 -33 91.0 -28.5Q83 -24 80 -18Q76 -6 72.5 -1.5Q69 3 69 12Q69 18 71.5 26.5Q74 35 75 43Q76 54 74.5 63.5Q73 73 78 80Q85 81 91 75Q96 68 93.5 58.0Q91 48 90 39Q84 34 85.0 25.0Q86 16 88 8ZM1009 3Q1010 -1 1011.5 -4.0Q1013 -7 1011 -12Q1009 -17 1001.5 -21.5Q994 -26 988 -27Q984 -28 981.0 -27.5Q978 -27 975 -28Q962 -31 954.0 -34.5Q946 -38 932 -40Q926 -41 920.5 -40.0Q915 -39 906 -37L895 -33Q894 -41 887.5 -45.5Q881 -50 872 -46Q865 -38 869.5 -28.0Q874 -18 888 -24Q894 -22 900.0 -22.0Q906 -22 913 -20Q925 -17 928.0 -17.5Q931 -18 934 -17Q944 -16 945.5 -17.0Q947 -18 949 -18Q963 -13 969.0 -12.0Q975 -11 980 -8Q982 -2 984.5 2.0Q987 6 988 13Q988 22 984.5 31.0Q981 40 985 48Q993 52 995.5 43.5Q998 35 1001 26Q1007 18 1009 12ZM463 20Q462 28 468.5 27.5Q475 27 477 23Q477 9 469.5 1.0Q462 -7 451 -11Q441 -12 438.0 -14.5Q435 -17 433 -17Q430 -17 428.0 -14.5Q426 -12 424 -10Q431 4 438 9Q443 13 450.5 14.0Q458 15 463 20ZM229 11Q221 12 211.0 11.5Q201 11 190 12Q208 0 231 6Z"/></g><g transform="translate(909.328,234.000) scale(0.250977,-0.250977)"><path d="M228 764Q229 756 224.5 752.5Q220 749 214.0 749.0Q208 749 203.0 753.0Q198 757 199 763Q203 768 213.5 769.5Q224 771 228 764ZM70 624Q68 621 63.5 618.5Q59 616 54 621Q49 625 47.5 642.0Q46 659 46 670Q46 687 46.5 710.5Q47 734 52 748Q55 749 58.0 751.0Q61 753 65 754Q76 755 79.0 756.5Q82 758 85 759Q89 759 92.0 758.5Q95 758 99 758Q103 759 107.0 759.5Q111 760 115 761Q125 761 129 762Q134 763 137.5 764.0Q141 765 144 766Q152 767 159.5 763.5Q167 760 169 755Q170 747 163.5 741.0Q157 735 151 734Q142 732 136.0 735.0Q130 738 123 739Q117 740 111.5 738.5Q106 737 99 738Q93 734 85.0 733.0Q77 732 72 727Q68 716 70.5 703.5Q73 691 68 683Q70 666 67.5 653.0Q65 640 70 624ZM884 -3Q879 0 873.0 -1.5Q867 -3 861 -4Q855 -5 849.5 -4.5Q844 -4 838 -4Q826 -5 815.0 -7.0Q804 -9 794 -3Q771 13 757.5 33.0Q744 53 727 72Q723 80 725.5 87.0Q728 94 726 102Q725 107 721.5 114.5Q718 122 715 125Q709 133 698.0 137.0Q687 141 678 146Q670 155 665.5 165.5Q661 176 653 184Q648 192 641.5 199.5Q635 207 630 215Q626 222 623.0 228.5Q620 235 615 242Q598 247 581.0 244.5Q564 242 548 243Q541 244 535 243Q524 242 513.0 243.5Q502 245 491.5 245.5Q481 246 471.5 245.5Q462 245 454 240Q450 231 449.0 232.0Q448 233 445 233Q440 220 442.0 206.0Q444 192 446 176Q449 158 446.0 136.0Q443 114 445 93Q445 88 445.5 82.0Q446 76 446 71Q446 62 443.5 54.0Q441 46 440 38Q433 37 421 30Q419 28 415.5 26.0Q412 24 410 22Q405 17 403.0 11.0Q401 5 397 1Q389 -7 377.0 -6.0Q365 -5 351 -7Q348 -7 344.5 -7.5Q341 -8 338 -8Q327 -10 316.0 -9.5Q305 -9 294 -9Q289 -9 283.5 -10.5Q278 -12 273 -12Q270 -12 267.0 -11.5Q264 -11 261 -11Q258 -11 254.5 -12.0Q251 -13 248 -13Q242 -13 235.5 -13.5Q229 -14 224 -14Q216 -15 207.5 -15.5Q199 -16 190 -14Q185 -14 180.5 -12.0Q176 -10 171 -8Q166 -6 161.5 -6.5Q157 -7 153 -6Q141 -2 134.0 6.5Q127 15 116 20Q114 26 114.0 31.0Q114 36 113 42Q115 44 115.5 47.5Q116 51 118 54Q118 74 110 87Q107 90 104.0 92.5Q101 95 100 100Q99 108 101.0 117.0Q103 126 105 135Q107 144 107.0 153.0Q107 162 109 170Q113 183 111.5 189.0Q110 195 109 198Q108 202 105.0 204.5Q102 207 101 210Q100 213 100.5 216.5Q101 220 100 223Q100 231 100.5 239.0Q101 247 100 254Q99 261 97.5 273.0Q96 285 98 293Q99 297 102.5 300.0Q106 303 109.5 306.0Q113 309 115.0 313.5Q117 318 116 326Q114 337 108 347Q97 365 95.0 378.0Q93 391 92 403Q91 412 90.0 421.0Q89 430 89 439Q87 488 88.5 534.5Q90 581 90 632Q92 653 91.0 669.5Q90 686 93 697Q97 715 118 718Q126 715 138.0 713.0Q150 711 162 716Q166 717 168.0 720.5Q170 724 174 726Q187 731 193.0 734.0Q199 737 205 736Q220 731 224.0 733.0Q228 735 233 735Q237 736 241.0 735.5Q245 735 249 735Q254 736 258.0 736.5Q262 737 266 737Q270 737 273.0 736.0Q276 735 280 735Q285 735 291.0 735.5Q297 736 302 736Q306 736 309.5 735.0Q313 734 317 734Q325 735 332.5 736.5Q340 738 347 740Q354 736 362.0 738.0Q370 740 379 739Q392 735 398.5 736.0Q405 737 411 737Q422 737 432.5 735.5Q443 734 453 735Q458 735 463.0 735.5Q468 736 473 736Q478 736 483.0 735.5Q488 735 493 735Q502 736 511.0 737.5Q520 739 529 740Q548 741 568.5 740.5Q589 740 609 742Q613 743 617.0 743.5Q621 744 625 745Q632 745 642.0 744.5Q652 744 662 744Q673 744 676.0 740.5Q679 737 682 735Q691 728 704.0 723.0Q717 718 731 722Q738 724 745.5 728.5Q753 733 760 737Q768 741 777.0 740.0Q786 739 795 739Q798 739 801.0 740.0Q804 741 807 741Q813 741 819.0 740.0Q825 739 831 738Q834 738 837.0 738.5Q840 739 843 738Q861 736 878.0 729.0Q895 722 910 717Q930 700 941.5 686.5Q953 673 964 659Q973 643 980.5 625.0Q988 607 990 584Q992 550 992.5 518.5Q993 487 993 453Q993 446 992.5 440.5Q992 435 993 430Q994 419 992.5 410.0Q991 401 989 390Q988 383 988.5 376.5Q989 370 987 364Q980 346 977.5 338.0Q975 330 970 323Q967 318 960.0 314.5Q953 311 949 311Q936 310 934.5 307.0Q933 304 931 301Q929 297 927.5 295.0Q926 293 925 289Q918 284 911.0 279.0Q904 274 898 268Q878 265 861.5 260.0Q845 255 828 250Q833 238 841.0 228.0Q849 218 854 207Q865 181 879 162Q883 155 888.5 148.5Q894 142 899 136L911 118Q917 110 921.0 102.5Q925 95 929 86Q931 83 932.5 80.0Q934 77 934 73Q940 62 946.0 51.0Q952 40 958 29Q963 30 966.0 31.0Q969 32 974 32Q972 30 968.0 29.0Q964 28 962 25Q961 22 959.0 16.5Q957 11 953 7Q945 2 937.0 1.0Q929 0 920.0 0.0Q911 0 902.0 0.0Q893 0 884 -3ZM188 652Q190 656 189.5 664.0Q189 672 186 674Q179 679 170.5 676.5Q162 674 153 675Q134 676 131.5 669.0Q129 662 127 654Q124 644 123.0 638.0Q122 632 124 624Q126 613 127.5 606.5Q129 600 137 597Q142 603 142.5 613.5Q143 624 146 632Q151 636 156.5 637.5Q162 639 168 642Q172 644 179.0 646.5Q186 649 188 652ZM257 668Q258 677 247 684Q232 683 229.5 677.0Q227 671 226 663Q231 658 243.0 658.5Q255 659 257 668ZM282 28Q291 32 288.5 41.5Q286 51 274 50Q266 45 268.5 36.0Q271 27 282 28ZM388 58Q397 69 392.5 78.0Q388 87 376 86Q370 82 366.5 76.5Q363 71 359.0 65.5Q355 60 349.0 57.0Q343 54 333 56Q329 52 325.0 48.5Q321 45 322 36Q324 31 328.5 29.5Q333 28 337 26Q342 28 349.0 27.5Q356 27 361 31Q364 33 367.5 37.5Q371 42 374 46Q378 50 382.0 53.0Q386 56 388 58ZM651 411Q657 418 661.5 428.0Q666 438 667 447Q668 456 667.5 465.0Q667 474 669 484Q670 488 672.5 491.0Q675 494 677 497Q683 508 684 516Q685 527 681.0 532.5Q677 538 673 543Q671 547 669.0 550.5Q667 554 665 556Q664 564 663.5 572.5Q663 581 659 588Q651 594 636.5 599.0Q622 604 609 601Q596 597 584.5 598.0Q573 599 559 600Q556 600 553.5 599.0Q551 598 548 598Q538 596 527.5 597.0Q517 598 507 599Q499 596 490.0 596.5Q481 597 471.5 597.5Q462 598 453.0 597.0Q444 596 438 590Q435 583 436.5 572.5Q438 562 436 552Q431 549 428.0 545.5Q425 542 424 536Q428 523 440 517Q442 510 441.5 502.5Q441 495 440 487Q440 471 442.5 453.5Q445 436 444 420Q443 412 442.0 403.5Q441 395 447 390Q457 388 465.5 388.5Q474 389 483 389Q493 387 500 387Q504 388 508.0 389.5Q512 391 517 392Q523 392 528.5 391.5Q534 391 541 391Q552 392 564.0 393.5Q576 395 589 391Q597 393 602.5 392.0Q608 391 615 393Q633 398 643 406ZM722 365Q727 376 729.0 389.0Q731 402 731 416Q729 419 727.0 421.5Q725 424 723 426Q718 415 712.5 404.0Q707 393 699 385Q695 380 689.5 379.0Q684 378 679 373Q667 367 663.0 363.0Q659 359 658 352Q666 347 671.0 341.0Q676 335 686 337Q697 339 707.0 348.5Q717 358 722 365ZM733 464Q737 465 739.5 470.0Q742 475 741.5 481.0Q741 487 738.5 491.0Q736 495 730 495Q728 493 723.5 489.0Q719 485 717 480Q715 475 716.5 470.0Q718 465 724 464ZM996 655Q994 673 985.5 684.5Q977 696 966 707Q966 712 963.5 716.5Q961 721 967 723Q982 725 992.5 715.0Q1003 705 1011 693Q1013 688 1013.5 686.0Q1014 684 1016 679Q1018 677 1019.0 672.5Q1020 668 1018 663Q1017 660 1012.5 655.5Q1008 651 1005 651ZM516 575Q514 562 503.0 560.0Q492 558 487 551Q483 528 475 515Q462 520 460.5 530.5Q459 541 461.5 551.5Q464 562 470.0 569.5Q476 577 486 577Q497 575 504.0 577.5Q511 580 516 575ZM1033 400Q1033 395 1032.0 392.0Q1031 389 1030 385Q1030 382 1030.5 379.5Q1031 377 1031 374Q1030 367 1028.0 360.5Q1026 354 1024 348Q1023 331 1016.0 318.0Q1009 305 1001 293Q998 292 995.5 288.5Q993 285 989 282Q985 280 981.0 277.5Q977 275 974 272Q972 270 970.5 267.5Q969 265 967 263Q964 261 958.5 258.5Q953 256 951 257Q942 268 945.0 271.0Q948 274 950 279Q952 283 953.0 286.5Q954 290 956 293Q967 297 976.0 302.5Q985 308 994 313Q998 321 1003.0 330.0Q1008 339 1009 350Q1010 352 1009.5 355.5Q1009 359 1009 362Q1011 370 1013.0 379.5Q1015 389 1016 396Q1017 402 1016.0 408.0Q1015 414 1015 420Q1015 430 1017.0 439.0Q1019 448 1021 458Q1029 458 1029.5 453.5Q1030 449 1031 441Q1033 431 1033.0 421.5Q1033 412 1033 400ZM500 221Q505 221 511.5 221.5Q518 222 522.5 221.0Q527 220 529.0 217.5Q531 215 528 209Q523 210 517.5 208.0Q512 206 507 206Q494 208 490.5 205.5Q487 203 482 202Q481 190 480.0 177.5Q479 165 468 162Q460 167 460.0 179.0Q460 191 460 199Q461 213 470.0 218.5Q479 224 493 223ZM88 8Q99 0 109.0 -9.0Q119 -18 133 -24Q125 -30 119.5 -32.0Q114 -34 108 -33Q99 -33 91.0 -28.5Q83 -24 80 -18Q76 -6 72.5 -1.5Q69 3 69 12Q69 18 71.5 26.5Q74 35 75 43Q76 54 74.5 63.5Q73 73 78 80Q85 81 91 75Q96 68 93.5 58.0Q91 48 90 39Q84 34 85.0 25.0Q86 16 88 8ZM1009 3Q1010 -1 1011.5 -4.0Q1013 -7 1011 -12Q1009 -17 1001.5 -21.5Q994 -26 988 -27Q984 -28 981.0 -27.5Q978 -27 975 -28Q962 -31 954.0 -34.5Q946 -38 932 -40Q926 -41 920.5 -40.0Q915 -39 906 -37L895 -33Q894 -41 887.5 -45.5Q881 -50 872 -46Q865 -38 869.5 -28.0Q874 -18 888 -24Q894 -22 900.0 -22.0Q906 -22 913 -20Q925 -17 928.0 -17.5Q931 -18 934 -17Q944 -16 945.5 -17.0Q947 -18 949 -18Q963 -13 969.0 -12.0Q975 -11 980 -8Q982 -2 984.5 2.0Q987 6 988 13Q988 22 984.5 31.0Q981 40 985 48Q993 52 995.5 43.5Q998 35 1001 26Q1007 18 1009 12ZM463 20Q462 28 468.5 27.5Q475 27 477 23Q477 9 469.5 1.0Q462 -7 451 -11Q441 -12 438.0 -14.5Q435 -17 433 -17Q430 -17 428.0 -14.5Q426 -12 424 -10Q431 4 438 9Q443 13 450.5 14.0Q458 15 463 20ZM229 11Q221 12 211.0 11.5Q201 11 190 12Q208 0 231 6Z"/></g><g transform="translate(1181.391,234.000) scale(0.250977,-0.250977)"><path d="M1099 328Q1099 325 1097.5 321.0Q1096 317 1096 314Q1095 308 1095.0 303.5Q1095 299 1091 294Q1093 287 1090.5 279.5Q1088 272 1090 266Q1082 255 1080.5 241.5Q1079 228 1075 216Q1073 211 1071.0 206.5Q1069 202 1067 197Q1064 189 1061.5 183.0Q1059 177 1056 171Q1049 161 1048.5 158.0Q1048 155 1046 152Q1041 144 1034.0 137.5Q1027 131 1024 122Q1020 118 1016.0 114.0Q1012 110 1009 105Q989 92 974.0 75.5Q959 59 939 46Q917 37 899.5 24.0Q882 11 859 3Q850 -3 839.5 -6.0Q829 -9 817 -14Q812 -16 805.5 -19.0Q799 -22 792 -23Q788 -23 785.5 -22.5Q783 -22 780 -22Q777 -23 774.5 -24.5Q772 -26 769 -27Q765 -28 761.0 -28.0Q757 -28 752 -30Q739 -35 735.0 -34.5Q731 -34 726 -35Q701 -38 673.5 -38.0Q646 -38 621 -42Q615 -39 606.0 -40.0Q597 -41 587.5 -42.5Q578 -44 568.5 -44.5Q559 -45 551 -42Q546 -40 542.5 -35.5Q539 -31 534 -28Q529 -25 524.0 -23.5Q519 -22 514 -20Q502 -24 489.0 -29.5Q476 -35 462 -33Q448 -30 444.0 -30.0Q440 -30 436 -30Q419 -30 402.5 -28.5Q386 -27 370 -22Q336 -17 307.0 -2.5Q278 12 248 23Q236 31 226.0 40.0Q216 49 202 55Q188 70 174.0 83.0Q160 96 145 110Q139 119 133.5 129.0Q128 139 122 150Q117 161 112.0 172.0Q107 183 101 194Q90 210 87.5 220.0Q85 230 82 241Q80 246 77.5 250.5Q75 255 73 260Q71 265 69.0 274.0Q67 283 70 288Q65 295 64.0 307.0Q63 319 65 330Q66 344 63.5 360.5Q61 377 65 389Q69 403 76.5 413.0Q84 423 81 439Q79 450 75.5 455.5Q72 461 76 474Q77 477 77.5 480.5Q78 484 80 487Q82 492 84.5 497.0Q87 502 87 510Q95 522 104.0 533.5Q113 545 122 556Q126 561 129.0 565.5Q132 570 137 575Q142 580 146 582Q151 585 156.5 586.0Q162 587 167 589Q174 593 179.0 598.5Q184 604 189 611Q197 622 202.5 632.5Q208 643 216 656Q221 659 227.0 662.5Q233 666 238 671Q249 676 259.5 684.0Q270 692 283 699Q288 702 294.5 705.0Q301 708 308 712Q319 717 327.5 721.0Q336 725 347 728Q379 738 420 744Q426 746 430.0 746.0Q434 746 440 748Q457 749 473.0 752.5Q489 756 506 757Q514 758 521.5 758.5Q529 759 538 760Q543 761 549.0 762.0Q555 763 560 763Q564 763 568.0 762.0Q572 761 577 761Q587 761 597.0 762.0Q607 763 616 762Q630 762 642.5 760.5Q655 759 671 757Q682 755 693.5 752.0Q705 749 716 745Q724 742 731.5 739.5Q739 737 749 736Q755 729 763.0 726.0Q771 723 780 720Q788 718 793.5 714.5Q799 711 806 709Q822 706 837.0 705.5Q852 705 865 698Q869 696 872.0 693.0Q875 690 880 688Q884 686 887.5 684.0Q891 682 895 680Q899 678 902.0 676.0Q905 674 909 672Q913 670 917.5 668.0Q922 666 926 664Q928 662 930.5 659.0Q933 656 935 654Q941 649 948.0 644.5Q955 640 962 635Q973 621 987.0 611.0Q1001 601 1014 589Q1016 587 1018.0 584.0Q1020 581 1022 579Q1024 575 1026.0 573.0Q1028 571 1030 569Q1033 564 1035.5 559.0Q1038 554 1043 551Q1048 543 1051.0 536.5Q1054 530 1059 522Q1061 518 1064.0 516.5Q1067 515 1067 511Q1068 506 1065.0 498.5Q1062 491 1065 484Q1067 480 1071.0 478.5Q1075 477 1078 475Q1083 468 1087.0 462.5Q1091 457 1092 447Q1093 444 1092.0 440.5Q1091 437 1091 433Q1092 427 1094.5 421.0Q1097 415 1098 408Q1099 404 1098.5 400.0Q1098 396 1098 393Q1098 379 1091.5 372.5Q1085 366 1087 354Q1089 351 1091.0 349.5Q1093 348 1095 345Q1097 343 1098.0 337.5Q1099 332 1099 328ZM190 528Q197 527 201.0 533.5Q205 540 207 548Q205 553 200.0 555.0Q195 557 195 564Q187 561 180.5 555.5Q174 550 176 538Q181 538 183.0 533.5Q185 529 190 528ZM300 639Q301 645 296.5 648.0Q292 651 289 656Q285 654 280.0 652.5Q275 651 271 649Q260 644 252.5 634.0Q245 624 238 613Q233 606 228.0 599.5Q223 593 226 585Q229 583 233.5 582.0Q238 581 240 579Q246 582 249.0 587.5Q252 593 255.0 598.5Q258 604 261.0 609.5Q264 615 269 618Q274 623 286.0 627.0Q298 631 300 639ZM314 287Q312 284 311.0 279.5Q310 275 311 270Q316 265 323.0 267.0Q330 269 330 274Q331 279 326.0 284.0Q321 289 314 287ZM341 120Q346 118 352.5 115.5Q359 113 361 122Q356 127 350.5 136.0Q345 145 344 156Q342 169 343.5 184.5Q345 200 340 211Q339 216 333.5 224.5Q328 233 325 234Q320 236 315.5 234.5Q311 233 307 231Q306 228 304 220Q306 212 312.5 204.5Q319 197 324 189Q329 177 327.5 170.0Q326 163 326 156Q326 145 330.0 136.5Q334 128 341 120ZM436 -4Q446 -3 454.0 -1.5Q462 0 467 5Q460 16 453.0 19.5Q446 23 438 23Q422 23 408.0 21.0Q394 19 388 9Q395 2 409.0 -1.0Q423 -4 436 -4ZM791 360Q792 366 792.0 371.0Q792 376 792 381Q793 395 792.0 408.0Q791 421 786 431Q784 435 782.5 437.5Q781 440 780 445Q780 456 781.0 467.5Q782 479 782 490Q782 509 780.0 526.5Q778 544 776 559Q765 580 754.5 589.5Q744 599 729 604Q721 606 713.5 605.5Q706 605 698 608Q694 610 692.0 613.0Q690 616 686 618Q672 626 660.0 619.5Q648 613 637 608Q619 611 601.0 610.5Q583 610 566 612Q561 612 557.5 617.0Q554 622 549 624Q542 626 535.5 625.0Q529 624 525 622Q521 618 518.5 615.0Q516 612 512 610Q508 609 503.5 610.0Q499 611 495 611Q485 610 475.0 606.5Q465 603 457 601Q449 599 445.0 598.5Q441 598 436 595Q422 589 414 581Q415 576 411.0 574.0Q407 572 404 569Q400 564 399.0 558.5Q398 553 394 548Q396 533 393.0 519.5Q390 506 389 490Q387 474 387.5 456.0Q388 438 388 424Q388 420 389.0 416.5Q390 413 390 409Q389 399 389.5 395.5Q390 392 390 387Q390 380 388.5 376.0Q387 372 385 366Q379 351 373 339Q369 316 364.0 289.0Q359 262 367 242Q369 238 373.0 235.5Q377 233 379 230Q381 228 381.5 223.5Q382 219 383 214Q387 199 388.0 181.0Q389 163 397 152Q407 141 421 133Q426 131 430.0 129.0Q434 127 439 125Q454 120 472.0 120.5Q490 121 507 119Q521 116 527.5 117.0Q534 118 541 117Q544 116 552 114Q555 113 558.5 112.5Q562 112 565 111Q570 110 575.0 110.5Q580 111 585 111Q593 109 597 109Q611 109 626.0 113.0Q641 117 655 117Q661 117 666.0 116.0Q671 115 675 115Q698 117 711.0 118.5Q724 120 732 125Q737 128 746.5 134.0Q756 140 759 144Q761 147 762.5 151.5Q764 156 766 159Q769 162 772.0 163.5Q775 165 777 169Q780 175 780.0 186.5Q780 198 781 206Q782 216 782.5 226.0Q783 236 783 246Q783 254 784.0 262.5Q785 271 786 280Q787 291 785.0 303.0Q783 315 784 328Q784 338 786.0 345.5Q788 353 791 360ZM844 530Q850 540 850 557Q845 565 841.5 575.5Q838 586 833 594Q826 596 819.0 600.5Q812 605 807 597Q809 590 813.5 585.0Q818 580 820 569Q820 565 819.0 562.5Q818 560 819 556Q819 550 819.5 538.0Q820 526 824 525Q829 523 834.0 526.5Q839 530 844 530ZM992 145Q1003 159 1013.5 171.5Q1024 184 1026 206Q1018 211 1011.5 209.0Q1005 207 1000.0 202.0Q995 197 991.5 190.0Q988 183 985 178Q979 169 970.5 161.0Q962 153 954 145Q947 145 942.0 140.0Q937 135 935.5 128.5Q934 122 936.5 116.0Q939 110 945 108Q948 106 951.0 107.5Q954 109 959 109Q964 113 969.0 115.5Q974 118 977 123Q980 130 982.0 131.0Q984 132 986 134Q990 142 992 145ZM1044 253Q1050 263 1043.5 271.5Q1037 280 1028 278Q1022 276 1019.0 269.5Q1016 263 1017.0 256.0Q1018 249 1022.0 245.0Q1026 241 1033 243Q1035 244 1038.5 247.5Q1042 251 1044 253ZM77 532Q76 548 81.0 555.0Q86 562 91 569Q95 576 97.5 583.0Q100 590 103 596Q107 601 114.5 606.5Q122 612 127 617Q132 622 135.0 627.5Q138 633 143 638Q154 659 171 670Q191 693 216 703Q220 696 218.5 693.0Q217 690 216 685Q198 669 186 650Q176 641 172.5 633.5Q169 626 162 623Q159 621 156.5 621.0Q154 621 151 618Q147 615 143.0 610.5Q139 606 135 601Q131 596 127.0 592.0Q123 588 120 583Q110 568 103.0 561.0Q96 554 92 547Q89 542 86.5 538.0Q84 534 77 532ZM734 487Q736 502 737.0 510.5Q738 519 737 526Q734 535 734.5 537.0Q735 539 733 542Q729 549 721.5 552.5Q714 556 705 558Q699 560 693.0 562.5Q687 565 681 566Q674 568 667.0 566.5Q660 565 652 566Q639 568 633.5 566.0Q628 564 623 564Q615 564 607.5 568.5Q600 573 599 579Q599 583 601.5 586.0Q604 589 604 591Q609 596 614.0 593.0Q619 590 624 589Q630 587 637.0 589.5Q644 592 652 591Q655 591 658.0 590.0Q661 589 666 589Q673 588 678.5 589.0Q684 590 690 590Q693 590 696.0 589.0Q699 588 703 587Q711 587 714 586Q721 581 723.5 581.0Q726 581 728 580Q733 578 736.0 574.0Q739 570 744 568Q747 559 749.5 557.5Q752 556 754 554Q753 550 754.0 546.5Q755 543 755 539Q753 532 751.0 526.5Q749 521 748 515Q746 504 749.0 492.5Q752 481 749 470Q738 476 737.0 479.5Q736 483 734 487ZM745 443Q753 440 759.5 430.0Q766 420 762 410Q760 405 756.5 398.0Q753 391 751 391Q747 391 741.5 397.0Q736 403 736 407Q735 412 737.0 419.0Q739 426 740 431Q741 436 741.0 438.5Q741 441 745 443ZM53 455Q54 436 52.5 423.0Q51 410 43 402Q32 400 31.5 410.0Q31 420 32 428Q32 435 31.5 440.5Q31 446 36 452Q39 457 43.5 456.0Q48 455 53 455ZM1068 127Q1062 133 1069.5 139.5Q1077 146 1082 145Q1084 140 1084.5 136.0Q1085 132 1083 128Q1081 124 1075.5 124.5Q1070 125 1068 127ZM1040 105Q1045 108 1051.5 108.5Q1058 109 1062 105Q1060 98 1057.5 91.5Q1055 85 1051 80Q1039 70 1036.5 65.5Q1034 61 1031 58Q1023 51 1014.5 45.5Q1006 40 999 31Q985 25 972.5 15.0Q960 5 940 8Q935 14 939.5 18.5Q944 23 949 25Q954 32 962.0 35.5Q970 39 974 47Q1003 62 1026 84Q1028 89 1031.5 96.0Q1035 103 1040 105ZM242 4Q250 -1 256.0 -6.0Q262 -11 251 -17Q233 -16 222.5 -6.5Q212 3 197 8Q192 13 187.5 16.5Q183 20 180 25Q180 33 181 36Q183 41 189.5 39.5Q196 38 201 35Q211 26 214.5 25.5Q218 25 220 23Q226 15 230 12Q238 6 242 4ZM665 -71Q669 -69 675.5 -68.5Q682 -68 687 -70Q691 -78 684.5 -82.0Q678 -86 673 -89Q665 -87 655.0 -87.5Q645 -88 635 -87Q626 -85 617.5 -82.0Q609 -79 600 -79Q589 -93 574.0 -93.0Q559 -93 548 -92Q539 -91 528.0 -89.5Q517 -88 506 -87Q492 -85 477.0 -84.5Q462 -84 450 -82Q438 -79 435.0 -79.5Q432 -80 428 -80Q422 -79 415.5 -77.5Q409 -76 401 -75Q394 -73 387.5 -73.0Q381 -73 375 -71Q364 -69 353.5 -63.0Q343 -57 332 -55Q325 -53 317.5 -52.0Q310 -51 304 -49Q298 -47 293.0 -42.0Q288 -37 283 -35Q280 -30 278.5 -22.5Q277 -15 285 -13Q299 -22 316.0 -28.0Q333 -34 347 -42Q360 -44 371.5 -47.0Q383 -50 397 -52Q415 -54 422.0 -55.5Q429 -57 438 -58Q452 -60 466.0 -58.5Q480 -57 497 -54Q503 -52 511.5 -55.5Q520 -59 526 -61Q529 -63 533.5 -64.0Q538 -65 541 -67Q544 -69 549.0 -70.5Q554 -72 560 -73Q563 -73 566.0 -72.5Q569 -72 572 -72Q577 -72 581.5 -72.5Q586 -73 588 -73Q604 -69 610.0 -71.0Q616 -73 622 -73Q637 -68 647.0 -69.0Q657 -70 665 -71Z"/></g><g transform="translate(1471.266,234.000) scale(0.250977,-0.250977)"><path d="M228 764Q229 756 224.5 752.5Q220 749 214.0 749.0Q208 749 203.0 753.0Q198 757 199 763Q203 768 213.5 769.5Q224 771 228 764ZM70 624Q68 621 63.5 618.5Q59 616 54 621Q49 625 47.5 642.0Q46 659 46 670Q46 687 46.5 710.5Q47 734 52 748Q55 749 58.0 751.0Q61 753 65 754Q76 755 79.0 756.5Q82 758 85 759Q89 759 92.0 758.5Q95 758 99 758Q103 759 107.0 759.5Q111 760 115 761Q125 761 129 762Q134 763 137.5 764.0Q141 765 144 766Q152 767 159.5 763.5Q167 760 169 755Q170 747 163.5 741.0Q157 735 151 734Q142 732 136.0 735.0Q130 738 123 739Q117 740 111.5 738.5Q106 737 99 738Q93 734 85.0 733.0Q77 732 72 727Q68 716 70.5 703.5Q73 691 68 683Q70 666 67.5 653.0Q65 640 70 624ZM884 -3Q879 0 873.0 -1.5Q867 -3 861 -4Q855 -5 849.5 -4.5Q844 -4 838 -4Q826 -5 815.0 -7.0Q804 -9 794 -3Q771 13 757.5 33.0Q744 53 727 72Q723 80 725.5 87.0Q728 94 726 102Q725 107 721.5 114.5Q718 122 715 125Q709 133 698.0 137.0Q687 141 678 146Q670 155 665.5 165.5Q661 176 653 184Q648 192 641.5 199.5Q635 207 630 215Q626 222 623.0 228.5Q620 235 615 242Q598 247 581.0 244.5Q564 242 548 243Q541 244 535 243Q524 242 513.0 243.5Q502 245 491.5 245.5Q481 246 471.5 245.5Q462 245 454 240Q450 231 449.0 232.0Q448 233 445 233Q440 220 442.0 206.0Q444 192 446 176Q449 158 446.0 136.0Q443 114 445 93Q445 88 445.5 82.0Q446 76 446 71Q446 62 443.5 54.0Q441 46 440 38Q433 37 421 30Q419 28 415.5 26.0Q412 24 410 22Q405 17 403.0 11.0Q401 5 397 1Q389 -7 377.0 -6.0Q365 -5 351 -7Q348 -7 344.5 -7.5Q341 -8 338 -8Q327 -10 316.0 -9.5Q305 -9 294 -9Q289 -9 283.5 -10.5Q278 -12 273 -12Q270 -12 267.0 -11.5Q264 -11 261 -11Q258 -11 254.5 -12.0Q251 -13 248 -13Q242 -13 235.5 -13.5Q229 -14 224 -14Q216 -15 207.5 -15.5Q199 -16 190 -14Q185 -14 180.5 -12.0Q176 -10 171 -8Q166 -6 161.5 -6.5Q157 -7 153 -6Q141 -2 134.0 6.5Q127 15 116 20Q114 26 114.0 31.0Q114 36 113 42Q115 44 115.5 47.5Q116 51 118 54Q118 74 110 87Q107 90 104.0 92.5Q101 95 100 100Q99 108 101.0 117.0Q103 126 105 135Q107 144 107.0 153.0Q107 162 109 170Q113 183 111.5 189.0Q110 195 109 198Q108 202 105.0 204.5Q102 207 101 210Q100 213 100.5 216.5Q101 220 100 223Q100 231 100.5 239.0Q101 247 100 254Q99 261 97.5 273.0Q96 285 98 293Q99 297 102.5 300.0Q106 303 109.5 306.0Q113 309 115.0 313.5Q117 318 116 326Q114 337 108 347Q97 365 95.0 378.0Q93 391 92 403Q91 412 90.0 421.0Q89 430 89 439Q87 488 88.5 534.5Q90 581 90 632Q92 653 91.0 669.5Q90 686 93 697Q97 715 118 718Q126 715 138.0 713.0Q150 711 162 716Q166 717 168.0 720.5Q170 724 174 726Q187 731 193.0 734.0Q199 737 205 736Q220 731 224.0 733.0Q228 735 233 735Q237 736 241.0 735.5Q245 735 249 735Q254 736 258.0 736.5Q262 737 266 737Q270 737 273.0 736.0Q276 735 280 735Q285 735 291.0 735.5Q297 736 302 736Q306 736 309.5 735.0Q313 734 317 734Q325 735 332.5 736.5Q340 738 347 740Q354 736 362.0 738.0Q370 740 379 739Q392 735 398.5 736.0Q405 737 411 737Q422 737 432.5 735.5Q443 734 453 735Q458 735 463.0 735.5Q468 736 473 736Q478 736 483.0 735.5Q488 735 493 735Q502 736 511.0 737.5Q520 739 529 740Q548 741 568.5 740.5Q589 740 609 742Q613 743 617.0 743.5Q621 744 625 745Q632 745 642.0 744.5Q652 744 662 744Q673 744 676.0 740.5Q679 737 682 735Q691 728 704.0 723.0Q717 718 731 722Q738 724 745.5 728.5Q753 733 760 737Q768 741 777.0 740.0Q786 739 795 739Q798 739 801.0 740.0Q804 741 807 741Q813 741 819.0 740.0Q825 739 831 738Q834 738 837.0 738.5Q840 739 843 738Q861 736 878.0 729.0Q895 722 910 717Q930 700 941.5 686.5Q953 673 964 659Q973 643 980.5 625.0Q988 607 990 584Q992 550 992.5 518.5Q993 487 993 453Q993 446 992.5 440.5Q992 435 993 430Q994 419 992.5 410.0Q991 401 989 390Q988 383 988.5 376.5Q989 370 987 364Q980 346 977.5 338.0Q975 330 970 323Q967 318 960.0 314.5Q953 311 949 311Q936 310 934.5 307.0Q933 304 931 301Q929 297 927.5 295.0Q926 293 925 289Q918 284 911.0 279.0Q904 274 898 268Q878 265 861.5 260.0Q845 255 828 250Q833 238 841.0 228.0Q849 218 854 207Q865 181 879 162Q883 155 888.5 148.5Q894 142 899 136L911 118Q917 110 921.0 102.5Q925 95 929 86Q931 83 932.5 80.0Q934 77 934 73Q940 62 946.0 51.0Q952 40 958 29Q963 30 966.0 31.0Q969 32 974 32Q972 30 968.0 29.0Q964 28 962 25Q961 22 959.0 16.5Q957 11 953 7Q945 2 937.0 1.0Q929 0 920.0 0.0Q911 0 902.0 0.0Q893 0 884 -3ZM188 652Q190 656 189.5 664.0Q189 672 186 674Q179 679 170.5 676.5Q162 674 153 675Q134 676 131.5 669.0Q129 662 127 654Q124 644 123.0 638.0Q122 632 124 624Q126 613 127.5 606.5Q129 600 137 597Q142 603 142.5 613.5Q143 624 146 632Q151 636 156.5 637.5Q162 639 168 642Q172 644 179.0 646.5Q186 649 188 652ZM257 668Q258 677 247 684Q232 683 229.5 677.0Q227 671 226 663Q231 658 243.0 658.5Q255 659 257 668ZM282 28Q291 32 288.5 41.5Q286 51 274 50Q266 45 268.5 36.0Q271 27 282 28ZM388 58Q397 69 392.5 78.0Q388 87 376 86Q370 82 366.5 76.5Q363 71 359.0 65.5Q355 60 349.0 57.0Q343 54 333 56Q329 52 325.0 48.5Q321 45 322 36Q324 31 328.5 29.5Q333 28 337 26Q342 28 349.0 27.5Q356 27 361 31Q364 33 367.5 37.5Q371 42 374 46Q378 50 382.0 53.0Q386 56 388 58ZM651 411Q657 418 661.5 428.0Q666 438 667 447Q668 456 667.5 465.0Q667 474 669 484Q670 488 672.5 491.0Q675 494 677 497Q683 508 684 516Q685 527 681.0 532.5Q677 538 673 543Q671 547 669.0 550.5Q667 554 665 556Q664 564 663.5 572.5Q663 581 659 588Q651 594 636.5 599.0Q622 604 609 601Q596 597 584.5 598.0Q573 599 559 600Q556 600 553.5 599.0Q551 598 548 598Q538 596 527.5 597.0Q517 598 507 599Q499 596 490.0 596.5Q481 597 471.5 597.5Q462 598 453.0 597.0Q444 596 438 590Q435 583 436.5 572.5Q438 562 436 552Q431 549 428.0 545.5Q425 542 424 536Q428 523 440 517Q442 510 441.5 502.5Q441 495 440 487Q440 471 442.5 453.5Q445 436 444 420Q443 412 442.0 403.5Q441 395 447 390Q457 388 465.5 388.5Q474 389 483 389Q493 387 500 387Q504 388 508.0 389.5Q512 391 517 392Q523 392 528.5 391.5Q534 391 541 391Q552 392 564.0 393.5Q576 395 589 391Q597 393 602.5 392.0Q608 391 615 393Q633 398 643 406ZM722 365Q727 376 729.0 389.0Q731 402 731 416Q729 419 727.0 421.5Q725 424 723 426Q718 415 712.5 404.0Q707 393 699 385Q695 380 689.5 379.0Q684 378 679 373Q667 367 663.0 363.0Q659 359 658 352Q666 347 671.0 341.0Q676 335 686 337Q697 339 707.0 348.5Q717 358 722 365ZM733 464Q737 465 739.5 470.0Q742 475 741.5 481.0Q741 487 738.5 491.0Q736 495 730 495Q728 493 723.5 489.0Q719 485 717 480Q715 475 716.5 470.0Q718 465 724 464ZM996 655Q994 673 985.5 684.5Q977 696 966 707Q966 712 963.5 716.5Q961 721 967 723Q982 725 992.5 715.0Q1003 705 1011 693Q1013 688 1013.5 686.0Q1014 684 1016 679Q1018 677 1019.0 672.5Q1020 668 1018 663Q1017 660 1012.5 655.5Q1008 651 1005 651ZM516 575Q514 562 503.0 560.0Q492 558 487 551Q483 528 475 515Q462 520 460.5 530.5Q459 541 461.5 551.5Q464 562 470.0 569.5Q476 577 486 577Q497 575 504.0 577.5Q511 580 516 575ZM1033 400Q1033 395 1032.0 392.0Q1031 389 1030 385Q1030 382 1030.5 379.5Q1031 377 1031 374Q1030 367 1028.0 360.5Q1026 354 1024 348Q1023 331 1016.0 318.0Q1009 305 1001 293Q998 292 995.5 288.5Q993 285 989 282Q985 280 981.0 277.5Q977 275 974 272Q972 270 970.5 267.5Q969 265 967 263Q964 261 958.5 258.5Q953 256 951 257Q942 268 945.0 271.0Q948 274 950 279Q952 283 953.0 286.5Q954 290 956 293Q967 297 976.0 302.5Q985 308 994 313Q998 321 1003.0 330.0Q1008 339 1009 350Q1010 352 1009.5 355.5Q1009 359 1009 362Q1011 370 1013.0 379.5Q1015 389 1016 396Q1017 402 1016.0 408.0Q1015 414 1015 420Q1015 430 1017.0 439.0Q1019 448 1021 458Q1029 458 1029.5 453.5Q1030 449 1031 441Q1033 431 1033.0 421.5Q1033 412 1033 400ZM500 221Q505 221 511.5 221.5Q518 222 522.5 221.0Q527 220 529.0 217.5Q531 215 528 209Q523 210 517.5 208.0Q512 206 507 206Q494 208 490.5 205.5Q487 203 482 202Q481 190 480.0 177.5Q479 165 468 162Q460 167 460.0 179.0Q460 191 460 199Q461 213 470.0 218.5Q479 224 493 223ZM88 8Q99 0 109.0 -9.0Q119 -18 133 -24Q125 -30 119.5 -32.0Q114 -34 108 -33Q99 -33 91.0 -28.5Q83 -24 80 -18Q76 -6 72.5 -1.5Q69 3 69 12Q69 18 71.5 26.5Q74 35 75 43Q76 54 74.5 63.5Q73 73 78 80Q85 81 91 75Q96 68 93.5 58.0Q91 48 90 39Q84 34 85.0 25.0Q86 16 88 8ZM1009 3Q1010 -1 1011.5 -4.0Q1013 -7 1011 -12Q1009 -17 1001.5 -21.5Q994 -26 988 -27Q984 -28 981.0 -27.5Q978 -27 975 -28Q962 -31 954.0 -34.5Q946 -38 932 -40Q926 -41 920.5 -40.0Q915 -39 906 -37L895 -33Q894 -41 887.5 -45.5Q881 -50 872 -46Q865 -38 869.5 -28.0Q874 -18 888 -24Q894 -22 900.0 -22.0Q906 -22 913 -20Q925 -17 928.0 -17.5Q931 -18 934 -17Q944 -16 945.5 -17.0Q947 -18 949 -18Q963 -13 969.0 -12.0Q975 -11 980 -8Q982 -2 984.5 2.0Q987 6 988 13Q988 22 984.5 31.0Q981 40 985 48Q993 52 995.5 43.5Q998 35 1001 26Q1007 18 1009 12ZM463 20Q462 28 468.5 27.5Q475 27 477 23Q477 9 469.5 1.0Q462 -7 451 -11Q441 -12 438.0 -14.5Q435 -17 433 -17Q430 -17 428.0 -14.5Q426 -12 424 -10Q431 4 438 9Q443 13 450.5 14.0Q458 15 463 20ZM229 11Q221 12 211.0 11.5Q201 11 190 12Q208 0 231 6Z"/></g><g transform="translate(1743.328,234.000) scale(0.250977,-0.250977)"><path d="M1283 621Q1275 618 1272.5 619.5Q1270 621 1267 623Q1265 635 1268.5 648.5Q1272 662 1268 675Q1266 680 1264.5 683.0Q1263 686 1261 690Q1256 688 1247.5 688.0Q1239 688 1232 688Q1230 688 1222.5 691.5Q1215 695 1213 697Q1210 701 1210.5 706.0Q1211 711 1212 717Q1202 723 1198.5 722.5Q1195 722 1191 723Q1181 726 1174.5 724.5Q1168 723 1165 725Q1161 726 1158.5 730.5Q1156 735 1157 739Q1159 749 1170.5 748.0Q1182 747 1189 742Q1197 743 1208.0 741.5Q1219 740 1230 740Q1234 740 1237.0 740.5Q1240 741 1243 740Q1251 739 1254.0 733.0Q1257 727 1261 722Q1268 719 1273.0 714.5Q1278 710 1284 703Q1295 693 1291 677Q1287 663 1284.0 649.5Q1281 636 1283 621ZM173 775Q153 771 135.0 771.0Q117 771 98 771Q94 765 93.0 754.0Q92 743 86 736Q83 733 78.0 728.0Q73 723 71 723Q60 731 60.5 741.5Q61 752 62 760Q63 765 64.5 769.5Q66 774 68 777Q69 779 71.5 781.0Q74 783 77 786Q80 791 82.0 795.0Q84 799 89 800Q100 799 102.5 800.5Q105 802 109 802Q114 803 118.5 800.5Q123 798 128 798Q131 798 134.5 799.0Q138 800 141 800Q144 798 148.5 798.0Q153 798 157.5 798.5Q162 799 166.5 799.5Q171 800 173 799Q178 795 176.0 788.5Q174 782 173 775ZM589 446Q591 441 592.5 436.5Q594 432 596 427Q597 423 600.0 419.5Q603 416 605 412Q612 400 617.5 388.5Q623 377 631 366Q635 355 639.0 344.0Q643 333 649 325Q649 319 651.5 314.5Q654 310 656 305Q659 296 662.5 288.0Q666 280 672 272Q689 298 705.0 325.5Q721 353 735 383Q740 384 746.0 386.5Q752 389 758 391Q761 393 762.5 395.5Q764 398 767 401Q776 411 778.0 415.0Q780 419 775 426Q777 437 783.0 448.0Q789 459 795 467Q798 472 800.0 476.0Q802 480 805 484Q807 489 810.0 492.5Q813 496 815 500Q817 505 820.0 509.0Q823 513 826 518Q828 522 830.0 526.0Q832 530 834 535Q839 543 843.5 549.5Q848 556 852 564Q854 568 855.5 571.5Q857 575 859 579Q864 588 871.5 597.5Q879 607 884 616Q889 630 894 637Q897 642 900.5 646.0Q904 650 906 655Q910 665 911.5 666.0Q913 667 914 669Q923 684 926.0 689.0Q929 694 932 700Q936 702 942 710Q947 711 951.5 713.5Q956 716 961 719Q971 714 984.0 715.0Q997 716 1007 711Q1015 713 1023.0 711.0Q1031 709 1039 709Q1046 709 1051.5 710.0Q1057 711 1063 712Q1071 712 1079.0 711.0Q1087 710 1097 710Q1106 709 1115.0 710.0Q1124 711 1135 710Q1160 710 1187 707Q1191 693 1201 681Q1205 679 1207.0 676.5Q1209 674 1213 672Q1219 670 1224.5 670.0Q1230 670 1234 667Q1239 663 1239.5 658.0Q1240 653 1245 648Q1244 628 1244.0 609.0Q1244 590 1242 571Q1241 557 1239.5 543.0Q1238 529 1238 515Q1240 500 1238.5 492.5Q1237 485 1237 477Q1236 465 1224.5 457.0Q1213 449 1209 441Q1205 432 1209.0 422.0Q1213 412 1215 403Q1224 395 1227.5 386.0Q1231 377 1231 365Q1231 358 1230.5 351.5Q1230 345 1228 341Q1229 321 1228.0 302.5Q1227 284 1226 264Q1225 256 1224.0 247.5Q1223 239 1223 231Q1222 218 1223.0 206.0Q1224 194 1222 180Q1210 162 1206.5 152.0Q1203 142 1203 130Q1203 119 1210.5 113.5Q1218 108 1220 97Q1218 71 1217.0 41.5Q1216 12 1214 -12Q1204 -17 1193 -12Q1185 -7 1183.5 -7.0Q1182 -7 1181 -6Q1178 -4 1176.0 -2.5Q1174 -1 1171 0Q1163 1 1157.0 -5.5Q1151 -12 1145 -16Q1137 -18 1132 -20Q1115 -19 1095.5 -18.5Q1076 -18 1059 -16Q1052 -15 1045.0 -16.5Q1038 -18 1030 -18Q1021 -18 1011.5 -18.5Q1002 -19 991 -18Q988 -18 985.5 -17.5Q983 -17 980 -17Q969 -18 953.5 -21.0Q938 -24 925 -16Q915 -15 915.0 -11.5Q915 -8 913 -5Q912 -2 910.5 1.0Q909 4 908 7Q907 11 907.0 14.5Q907 18 905 22Q903 28 897.0 30.0Q891 32 886 36Q884 51 886.0 68.5Q888 86 893 99Q891 118 892.5 135.5Q894 153 894 173Q894 207 899.0 238.0Q904 269 905 307Q906 320 907.0 333.0Q908 346 908 359Q900 345 892.5 331.5Q885 318 877 304Q870 294 862.5 284.5Q855 275 850 264Q848 255 844.0 250.5Q840 246 838 238Q831 228 829.0 224.0Q827 220 825 215Q821 211 817.5 214.0Q814 217 809 216Q800 206 799.5 203.5Q799 201 797 193Q793 177 797.0 173.0Q801 169 801 165Q801 161 797.0 155.0Q793 149 791 144Q777 123 764 97Q756 83 752 70Q746 65 743.5 58.5Q741 52 738 46Q733 37 727.0 28.5Q721 20 716 12Q709 2 708.0 3.5Q707 5 706 6Q699 -1 687.5 -1.0Q676 -1 671 7Q663 6 656.5 4.5Q650 3 642 1Q637 -1 630.5 -4.5Q624 -8 617 -7Q607 -2 604.0 -2.0Q601 -2 599 -1Q591 4 588.5 12.5Q586 21 582 32Q580 39 576.0 45.0Q572 51 569 59Q561 79 552.5 99.5Q544 120 536 140Q534 143 532.0 146.0Q530 149 528 153Q526 157 524 167Q521 174 517.0 180.0Q513 186 511 193Q509 199 508.5 206.0Q508 213 506 220Q504 228 501.5 234.5Q499 241 499 247Q497 272 483.5 283.5Q470 295 461 306Q453 326 447.5 346.5Q442 367 434 386Q432 384 432.0 381.0Q432 378 431 374Q431 363 429.0 353.5Q427 344 426 335Q425 325 424.0 314.0Q423 303 422 292Q421 281 421.0 271.0Q421 261 419 251Q418 240 418.0 228.0Q418 216 416 206Q414 200 410.5 194.0Q407 188 403.0 182.5Q399 177 397.0 170.5Q395 164 398 156Q399 154 402.0 151.5Q405 149 407 146Q413 133 413.0 125.0Q413 117 413 106Q414 90 414.5 73.0Q415 56 413 39Q398 32 392.0 27.0Q386 22 380 17Q373 18 366.0 17.0Q359 16 353 16Q331 16 307.0 18.5Q283 21 259 25Q251 27 248 28Q243 28 239.5 27.0Q236 26 231 26Q222 26 213.5 27.0Q205 28 196 30Q187 31 179.0 30.5Q171 30 163 31Q150 32 138.5 33.5Q127 35 117 42Q114 49 106.5 52.5Q99 56 91 58Q85 68 82.0 72.0Q79 76 77 80Q76 90 78.5 99.0Q81 108 80 117Q79 125 78.5 134.5Q78 144 78 152Q77 160 78.0 167.5Q79 175 80 183Q80 198 79.5 211.0Q79 224 81 238Q81 240 82.5 244.5Q84 249 86 251Q97 264 98.0 275.0Q99 286 104 295Q107 323 96 341Q94 345 92.0 347.0Q90 349 89 352Q88 357 89.0 366.0Q90 375 90 381Q90 393 92.5 401.5Q95 410 99 419Q101 424 101.5 428.0Q102 432 103 436Q105 441 107.0 447.5Q109 454 106 461Q105 464 103.0 466.0Q101 468 99 470Q96 479 96.5 488.5Q97 498 98 507Q100 523 100.0 541.0Q100 559 102 575Q105 602 105 629Q105 649 104.0 671.5Q103 694 105 717Q106 723 107.5 728.5Q109 734 109 740Q121 749 134.5 752.5Q148 756 157 748Q165 746 171.0 747.0Q177 748 183 745Q191 749 195.5 754.5Q200 760 205 765Q212 766 219.0 764.5Q226 763 234 763Q241 763 246.5 764.0Q252 765 258 764Q263 764 267.0 762.5Q271 761 276 759Q290 757 303.0 758.0Q316 759 328 757Q339 753 343.5 754.0Q348 755 354 752Q364 754 373.0 750.0Q382 746 392 746Q406 748 416.5 744.0Q427 740 439 737Q453 728 459.0 712.0Q465 696 470 679Q475 674 478.5 668.0Q482 662 487 656Q493 645 499.0 633.5Q505 622 512 610Q518 599 523.5 584.5Q529 570 535 557Q541 549 540.5 546.0Q540 543 542 541Q546 531 550.5 522.5Q555 514 559 506Q561 503 564.0 499.5Q567 496 567 494Q567 489 563.0 483.5Q559 478 561 470Q561 468 563.5 465.0Q566 462 568 460Q572 455 577.0 452.5Q582 450 589 446ZM300 707Q294 710 284.0 713.0Q274 716 267 712Q263 715 259.0 714.0Q255 713 250 712Q248 704 250.0 700.0Q252 696 254 692Q261 688 269.0 689.0Q277 690 286 689Q291 689 295.0 688.5Q299 688 303 690Q305 695 303.0 698.5Q301 702 300 707ZM173 679Q176 683 185.5 686.0Q195 689 201 690Q207 691 211.5 692.0Q216 693 218 697Q220 700 217.0 707.0Q214 714 211 714Q198 709 183.5 706.0Q169 703 155 708Q147 683 144.0 665.0Q141 647 147 630Q159 627 163.0 631.5Q167 636 168.0 644.0Q169 652 168.5 662.0Q168 672 173 679ZM1187 609Q1194 609 1196.0 614.5Q1198 620 1196.5 626.0Q1195 632 1190.5 636.5Q1186 641 1180 639Q1174 637 1170.0 631.0Q1166 625 1166 618Q1174 611 1177.5 609.5Q1181 608 1187 609ZM953 459Q950 459 943.5 455.0Q937 451 936 449Q933 438 941.0 433.5Q949 429 953 424Q963 416 963 397Q962 386 960.5 376.0Q959 366 961 354Q971 354 973.5 356.0Q976 358 977 360Q979 372 979.0 380.5Q979 389 981 400Q983 417 984.0 432.0Q985 447 975 458Q970 455 965.0 457.5Q960 460 953 459ZM977 316Q971 318 963.0 314.0Q955 310 957 301Q969 294 975.5 301.0Q982 308 977 316ZM607 97Q604 92 604.5 83.5Q605 75 607.0 66.5Q609 58 613.5 52.0Q618 46 624 46Q630 46 633.0 52.0Q636 58 639 63Q632 73 627.5 85.0Q623 97 607 97ZM310 75Q304 68 312.0 65.0Q320 62 325 60Q336 55 340.5 57.0Q345 59 349 57Q373 60 371 84Q371 89 369.0 94.0Q367 99 367 104Q365 112 358.5 108.0Q352 104 349 101Q345 95 344.0 87.5Q343 80 338 75Q332 73 323.5 76.5Q315 80 310 75ZM233 87Q232 82 232.0 76.5Q232 71 236 68Q239 67 243.0 68.0Q247 69 251 67Q254 72 256.5 76.0Q259 80 259 88Q253 89 246.0 89.5Q239 90 233 87ZM693 55Q694 63 689.0 62.5Q684 62 679 60Q677 56 674.0 55.5Q671 55 671 50Q676 46 684.0 48.0Q692 50 693 55ZM569 621Q576 619 579.5 616.0Q583 613 588 611Q592 603 593.0 595.5Q594 588 589 581Q592 570 598.0 557.5Q604 545 609 534Q611 529 616.0 523.5Q621 518 621 513Q621 504 608.5 499.5Q596 495 589 503Q581 514 579.0 530.0Q577 546 572 560Q568 565 566.5 570.5Q565 576 562 582Q560 586 557.0 589.5Q554 593 552 597Q550 602 548.0 606.0Q546 610 544 614Q541 621 537.0 628.0Q533 635 528 642Q522 652 516 668Q514 672 512.0 676.0Q510 680 507 684Q500 695 493.0 707.0Q486 719 478 730Q481 734 484.0 737.5Q487 741 495 739Q506 735 513.5 722.5Q521 710 529 703Q537 685 545.5 667.0Q554 649 565 635Q566 631 567.0 628.0Q568 625 569 621ZM1234 -16Q1236 -23 1237.0 -29.0Q1238 -35 1237 -40Q1236 -49 1227.5 -57.0Q1219 -65 1209 -66Q1206 -67 1203.5 -66.0Q1201 -65 1198 -65Q1187 -63 1175.0 -65.0Q1163 -67 1151 -66Q1145 -59 1144.0 -50.5Q1143 -42 1152 -36Q1157 -33 1165.0 -33.0Q1173 -33 1181 -35Q1197 -41 1205.0 -40.0Q1213 -39 1218 -35Q1222 -30 1224.0 -22.0Q1226 -14 1234 -16ZM268 -31Q256 -25 252.0 -23.0Q248 -21 243 -18Q240 -17 236.0 -17.0Q232 -17 230 -15Q224 -11 227.0 -3.0Q230 5 236 6Q251 4 261.5 4.5Q272 5 283 4Q293 0 296.0 -6.5Q299 -13 298 -18Q296 -29 287.0 -31.0Q278 -33 268 -31ZM318 -26Q316 -23 316.5 -17.0Q317 -11 319 -9Q324 -4 330.5 -3.5Q337 -3 344 -4Q358 -6 373.0 -4.0Q388 -2 400 -4Q406 -3 409.0 -0.5Q412 2 415.0 5.0Q418 8 421.5 10.0Q425 12 430 11Q436 10 441.0 4.0Q446 -2 443 -8Q441 -13 435.0 -18.5Q429 -24 424 -25Q417 -27 406.5 -25.5Q396 -24 387 -25Q369 -27 361.5 -26.5Q354 -26 346 -27Q338 -27 331.5 -28.0Q325 -29 318 -26ZM784 43Q789 35 783.5 26.5Q778 18 776 10Q773 5 769.5 0.0Q766 -5 762 -11Q760 -15 758.0 -19.5Q756 -24 754 -27Q749 -32 743.5 -36.5Q738 -41 735 -47Q724 -49 707.0 -53.0Q690 -57 676 -55Q668 -53 663.5 -46.0Q659 -39 662 -29Q676 -21 691.0 -24.0Q706 -27 720 -22Q726 -19 732 -13Q738 -7 745.5 0.0Q753 7 756 18Q757 24 756.5 29.0Q756 34 760 38Q762 40 766.5 40.5Q771 41 775 43Z"/></g><g transform="translate(2079.141,234.000) scale(0.250977,-0.250977)"><path d="M69 676Q64 673 61.5 678.0Q59 683 55 684Q51 698 50.5 714.0Q50 730 59 740Q64 740 67.0 743.0Q70 746 74 748Q84 750 86.0 751.5Q88 753 90 753Q107 751 115.5 752.0Q124 753 132 754Q139 754 146.5 755.0Q154 756 162 757Q167 758 173.0 757.5Q179 757 184 758Q198 760 211.5 763.5Q225 767 239 765Q241 763 243.5 757.0Q246 751 243 746Q241 744 233.5 739.5Q226 735 224 734Q214 731 209 738Q199 734 189.0 734.5Q179 735 172 732Q167 732 164.5 734.0Q162 736 158 736Q156 736 153.0 734.5Q150 733 147 733Q144 732 141.5 733.0Q139 734 135 734Q130 734 121.0 732.5Q112 731 104 730Q92 725 87.0 724.5Q82 724 77 722Q72 719 70.5 712.5Q69 706 68 697Q68 693 69.5 685.5Q71 678 69 676ZM266 745Q268 756 273.5 759.0Q279 762 285.0 762.5Q291 763 296.0 761.0Q301 759 301 752Q295 744 284.5 742.0Q274 740 266 745ZM887 97Q887 94 886.0 91.0Q885 88 885 84Q884 79 885.5 74.0Q887 69 887 63Q888 58 888.5 50.5Q889 43 888 39Q885 29 874 20Q871 17 866.5 14.5Q862 12 856 11Q853 11 845 13Q839 13 831.0 12.5Q823 12 815 12Q799 11 781.0 9.5Q763 8 743 7Q724 8 716.5 15.5Q709 23 694 22Q691 20 686.5 18.5Q682 17 680 15Q675 13 670.0 10.0Q665 7 660 6Q648 1 630.0 2.5Q612 4 598 4Q591 5 584.5 3.0Q578 1 570 0Q550 -4 531.5 -3.5Q513 -3 493 -5Q482 -6 470.0 -6.0Q458 -6 446 -7Q439 -8 432.5 -9.0Q426 -10 419 -11Q415 -11 412.0 -10.5Q409 -10 406 -10Q395 -10 383.0 -11.5Q371 -13 359 -13Q353 -13 347.5 -12.0Q342 -11 336 -11Q331 -10 326.0 -10.5Q321 -11 316 -11Q299 -10 293.5 -11.5Q288 -13 281 -13Q279 -14 276.0 -13.0Q273 -12 270 -13Q257 -13 243.5 -15.0Q230 -17 218 -15Q209 -18 194.5 -18.5Q180 -19 171 -18Q164 -15 158.5 -11.0Q153 -7 152 2Q146 1 142.5 3.0Q139 5 134 10Q129 15 125.0 20.5Q121 26 119 36Q117 45 117.5 57.0Q118 69 117 80Q116 93 112.5 105.0Q109 117 110 125Q111 131 115.5 135.5Q120 140 121 145Q121 150 120.0 156.0Q119 162 117 167Q115 172 113.0 175.5Q111 179 110 186Q109 190 109.0 195.0Q109 200 109 205Q109 209 109.5 213.0Q110 217 110 222Q110 227 109.0 231.0Q108 235 108 240Q106 251 107.0 261.0Q108 271 108 281Q108 288 109.0 294.0Q110 300 110 305V326Q112 330 116.0 332.0Q120 334 124 336Q126 344 127.0 352.5Q128 361 125 370Q122 377 115.0 381.5Q108 386 105 392Q104 406 103.5 419.0Q103 432 101 449Q101 452 100.0 454.5Q99 457 98 460V478Q96 513 93.5 550.0Q91 587 91 623Q89 646 91 670Q92 674 92.0 679.5Q92 685 94 688Q97 693 104.0 695.0Q111 697 114 705Q119 703 124.0 706.5Q129 710 134 712Q136 712 139.5 711.5Q143 711 146 712Q151 713 157.0 713.0Q163 713 169 715Q183 717 187.0 713.5Q191 710 196 708Q202 704 213.5 702.5Q225 701 233 707Q241 711 245.5 716.5Q250 722 262 723Q267 724 272.0 723.5Q277 723 283 723Q286 723 289.5 724.0Q293 725 296 725Q307 727 316.5 725.5Q326 724 337 728Q345 726 353.5 728.0Q362 730 371 729Q382 729 393.5 727.5Q405 726 417 728Q449 733 470.5 733.5Q492 734 512 736Q523 738 535.5 738.5Q548 739 559 741Q564 743 568.5 743.0Q573 743 581 743Q585 744 589.0 745.0Q593 746 596 746Q601 745 605.0 742.0Q609 739 614 738Q619 737 623.0 738.0Q627 739 632 739Q637 739 641.0 738.0Q645 737 649 738Q652 738 654.0 740.5Q656 743 659 744Q664 744 668.0 741.0Q672 738 675 736Q679 734 683.0 732.5Q687 731 692 731Q705 729 714 738Q716 740 717.5 743.5Q719 747 721 750Q726 752 737.0 754.0Q748 756 756 756Q759 756 762.0 754.5Q765 753 768 753Q775 751 780.5 751.5Q786 752 794 750Q807 745 811.5 733.0Q816 721 818 711Q819 705 818.0 698.0Q817 691 818 686Q820 676 824.0 667.5Q828 659 828 649Q829 639 828.0 630.0Q827 621 822 615Q820 613 815.0 609.0Q810 605 808 604Q805 602 801.5 603.0Q798 604 793 603Q788 602 783.5 600.5Q779 599 774 598Q769 597 762.5 598.0Q756 599 751 602Q746 604 742.5 609.0Q739 614 733 615Q724 615 717.0 606.5Q710 598 702 595Q696 593 690.5 593.5Q685 594 676 594Q669 591 661.5 592.5Q654 594 646 593Q641 593 636.0 591.5Q631 590 625 590Q612 589 596.0 589.5Q580 590 567 588Q550 586 534.0 588.0Q518 590 502 588Q491 587 483.0 587.0Q475 587 465 586Q461 585 453.5 582.5Q446 580 444 578Q442 576 441.0 568.0Q440 560 440 556Q439 545 440.0 535.5Q441 526 442 515Q442 505 443.0 497.0Q444 489 445 478Q446 472 445.5 467.0Q445 462 446 459Q454 447 453.5 443.5Q453 440 455 437Q479 429 495.0 430.5Q511 432 528 431Q536 430 543.0 431.0Q550 432 557 431Q568 430 579.5 429.5Q591 429 603 431Q609 431 615.0 431.0Q621 431 626 432Q631 433 638.0 434.0Q645 435 652 434Q657 434 660.0 430.5Q663 427 668 425Q672 425 675.5 424.5Q679 424 683 425Q690 426 695.0 430.0Q700 434 706 436Q709 437 713.5 436.5Q718 436 723 436Q734 438 747.0 439.0Q760 440 774 439Q779 439 787.0 437.0Q795 435 800 431Q804 428 809.0 416.0Q814 404 815 396Q820 369 802 356Q805 343 800 329Q798 319 794.5 314.0Q791 309 784 304Q780 299 774.0 294.5Q768 290 760 296Q753 297 746.5 295.0Q740 293 734 294Q728 295 723.0 297.0Q718 299 712 298Q707 297 701.5 292.5Q696 288 691 286Q686 284 679.0 284.5Q672 285 665 284Q654 282 641.5 283.0Q629 284 616 282Q592 279 570 279Q550 281 537.5 279.5Q525 278 511 278Q506 276 501.0 277.0Q496 278 489 276Q481 276 474.0 278.0Q467 280 461 278Q454 274 453.0 274.5Q452 275 450 274Q445 271 444.0 262.5Q443 254 444 247Q445 239 449 228Q450 223 449.5 218.5Q449 214 449 209Q449 202 450.0 195.5Q451 189 452 182Q454 168 456.0 158.5Q458 149 471 146Q474 146 477.0 146.5Q480 147 484 148Q492 148 499.0 147.0Q506 146 512 145Q521 145 530.0 146.0Q539 147 548 147Q554 147 560.0 146.0Q566 145 571 146Q579 147 587.0 146.0Q595 145 604 147Q619 151 622.5 150.5Q626 150 630 150Q636 151 641.5 152.5Q647 154 652 154Q660 154 665.5 152.5Q671 151 676 152Q696 156 707.5 155.5Q719 155 730 156Q740 157 749.5 159.0Q759 161 767 161Q775 160 781.5 156.5Q788 153 797 152Q804 150 811 152Q816 154 820.5 157.5Q825 161 830 163Q844 168 855.5 163.5Q867 159 878 154Q887 143 888.0 128.5Q889 114 887 97ZM519 338Q511 337 505.0 334.5Q499 332 497 326Q502 323 508.0 320.0Q514 317 520 321Q524 324 523.5 329.5Q523 335 519 338ZM697 706Q695 700 689.0 698.5Q683 697 684 689Q688 685 693.5 685.5Q699 686 703.0 689.0Q707 692 708.5 697.0Q710 702 706 707ZM545 699Q540 697 535.0 696.0Q530 695 532 690Q534 686 541.0 684.5Q548 683 554 684Q561 685 568.0 687.0Q575 689 583 689Q591 689 599.0 686.0Q607 683 615 683Q621 683 627.0 685.0Q633 687 637.0 690.0Q641 693 641.5 696.5Q642 700 637 705Q617 704 601.0 704.0Q585 704 571 707Q564 705 558.5 703.0Q553 701 545 699ZM137 587Q141 586 143.0 587.5Q145 589 150 588Q152 591 154.0 593.0Q156 595 157 599Q159 606 157.0 615.0Q155 624 157 632Q159 635 163.5 638.0Q168 641 174 640Q195 637 202.0 646.5Q209 656 201 668Q196 668 192.0 667.5Q188 667 183 666Q164 669 153.5 666.0Q143 663 138 656Q134 640 134.5 622.0Q135 604 137 587ZM142 525Q146 520 154.5 520.5Q163 521 168 525Q169 529 169.5 533.5Q170 538 171 543Q167 549 162.5 549.0Q158 549 153.5 545.0Q149 541 146.0 535.0Q143 529 142 525ZM246 32Q246 37 242.5 39.0Q239 41 234.5 41.5Q230 42 224.5 42.0Q219 42 215 43Q206 47 202 53Q197 61 195.0 72.0Q193 83 182 84Q177 84 171.5 80.5Q166 77 165 74Q163 70 165.5 65.0Q168 60 169 56Q171 51 172.0 47.0Q173 43 175 39Q179 32 188.0 28.5Q197 25 207.5 24.0Q218 23 228.5 25.0Q239 27 246 32ZM429 308Q435 313 444.5 316.0Q454 319 464 321Q465 324 464.5 326.5Q464 329 463 332Q446 331 432.0 330.5Q418 330 402 325Q385 307 385 267Q388 260 395.0 260.0Q402 260 410 262Q412 271 411.5 280.5Q411 290 417 296Q424 300 425.5 303.0Q427 306 429 308ZM76 451Q73 452 71.5 446.5Q70 441 66 440Q57 437 55.5 445.5Q54 454 54 459Q54 465 54.5 473.5Q55 482 54 490Q54 494 52.5 498.5Q51 503 50 505Q50 518 49.0 521.0Q48 524 48 528Q46 538 47.0 547.5Q48 557 46 566Q44 571 42.5 576.0Q41 581 41 586Q41 595 45.0 602.0Q49 609 51 614Q60 608 65 603Q63 586 66.0 568.0Q69 550 69 531Q69 524 67.5 517.0Q66 510 68 503Q69 500 70.5 497.5Q72 495 71 492Q78 476 76 451ZM488 481Q492 474 493.0 470.0Q494 466 501 464Q503 457 501 453Q489 447 481.0 450.5Q473 454 469.0 462.0Q465 470 464.5 480.5Q464 491 467 500Q480 502 480.5 498.0Q481 494 483 488ZM828 345Q834 345 838.0 336.0Q842 327 843 322Q844 317 842.5 311.0Q841 305 840 300Q839 280 829.0 277.5Q819 275 809 270Q802 270 795.0 267.5Q788 265 780.5 263.5Q773 262 766.5 262.0Q760 262 755 267Q759 275 761.5 277.0Q764 279 767 281Q769 282 773.0 284.0Q777 286 779 286Q792 284 797.0 285.5Q802 287 807 289Q809 295 811.5 303.0Q814 311 815 319Q816 324 815.5 327.5Q815 331 817 335Q818 337 822.0 341.0Q826 345 828 345ZM514 239Q508 237 503.0 231.5Q498 226 496 223Q493 215 492.5 207.5Q492 200 484 199Q476 198 473.5 209.0Q471 220 470 228Q470 231 469.0 234.0Q468 237 468 239Q469 247 473.5 250.5Q478 254 483 258Q498 257 512.5 259.0Q527 261 538 258Q542 251 536.0 246.0Q530 241 523 240ZM476 181Q476 186 480.0 189.0Q484 192 488.5 192.5Q493 193 496.5 190.0Q500 187 499 181Q491 176 487.0 175.5Q483 175 479 174ZM207 -43Q213 -43 219.5 -42.5Q226 -42 232 -44Q238 -53 224.5 -56.5Q211 -60 199 -58Q192 -57 186.5 -56.0Q181 -55 176 -56Q164 -59 156.5 -58.5Q149 -58 142 -57Q130 -57 126 -48Q120 -46 114.0 -45.5Q108 -45 104 -40Q97 -40 91.5 -38.5Q86 -37 84 -29Q84 -25 85.0 -20.5Q86 -16 87 -11Q87 -6 85.5 0.0Q84 6 84 12Q84 18 86.5 25.0Q89 32 89 35Q98 38 98.0 29.0Q98 20 97 12Q102 6 108.5 1.0Q115 -4 120 -10Q125 -15 127.5 -21.0Q130 -27 134 -33Q144 -34 144.5 -36.0Q145 -38 147 -40Q152 -42 156.5 -41.5Q161 -41 166 -43Q180 -47 189.5 -45.0Q199 -43 207 -43ZM707 -3Q712 -4 715.5 -6.5Q719 -9 724 -10Q727 -15 726 -24Q715 -31 702.0 -29.0Q689 -27 677 -29Q670 -29 663.0 -31.0Q656 -33 649 -34Q642 -31 634.0 -33.5Q626 -36 620 -31Q631 -24 637.5 -21.5Q644 -19 652 -17Q660 -15 667.0 -14.5Q674 -14 681 -11Q687 -8 693.5 -5.0Q700 -2 707 -3Z"/></g><g transform="translate(2312.547,234.000) scale(0.250977,-0.250977)"><path d="M69 676Q64 673 61.5 678.0Q59 683 55 684Q51 698 50.5 714.0Q50 730 59 740Q64 740 67.0 743.0Q70 746 74 748Q84 750 86.0 751.5Q88 753 90 753Q107 751 115.5 752.0Q124 753 132 754Q139 754 146.5 755.0Q154 756 162 757Q167 758 173.0 757.5Q179 757 184 758Q198 760 211.5 763.5Q225 767 239 765Q241 763 243.5 757.0Q246 751 243 746Q241 744 233.5 739.5Q226 735 224 734Q214 731 209 738Q199 734 189.0 734.5Q179 735 172 732Q167 732 164.5 734.0Q162 736 158 736Q156 736 153.0 734.5Q150 733 147 733Q144 732 141.5 733.0Q139 734 135 734Q130 734 121.0 732.5Q112 731 104 730Q92 725 87.0 724.5Q82 724 77 722Q72 719 70.5 712.5Q69 706 68 697Q68 693 69.5 685.5Q71 678 69 676ZM266 745Q268 756 273.5 759.0Q279 762 285.0 762.5Q291 763 296.0 761.0Q301 759 301 752Q295 744 284.5 742.0Q274 740 266 745ZM887 97Q887 94 886.0 91.0Q885 88 885 84Q884 79 885.5 74.0Q887 69 887 63Q888 58 888.5 50.5Q889 43 888 39Q885 29 874 20Q871 17 866.5 14.5Q862 12 856 11Q853 11 845 13Q839 13 831.0 12.5Q823 12 815 12Q799 11 781.0 9.5Q763 8 743 7Q724 8 716.5 15.5Q709 23 694 22Q691 20 686.5 18.5Q682 17 680 15Q675 13 670.0 10.0Q665 7 660 6Q648 1 630.0 2.5Q612 4 598 4Q591 5 584.5 3.0Q578 1 570 0Q550 -4 531.5 -3.5Q513 -3 493 -5Q482 -6 470.0 -6.0Q458 -6 446 -7Q439 -8 432.5 -9.0Q426 -10 419 -11Q415 -11 412.0 -10.5Q409 -10 406 -10Q395 -10 383.0 -11.5Q371 -13 359 -13Q353 -13 347.5 -12.0Q342 -11 336 -11Q331 -10 326.0 -10.5Q321 -11 316 -11Q299 -10 293.5 -11.5Q288 -13 281 -13Q279 -14 276.0 -13.0Q273 -12 270 -13Q257 -13 243.5 -15.0Q230 -17 218 -15Q209 -18 194.5 -18.5Q180 -19 171 -18Q164 -15 158.5 -11.0Q153 -7 152 2Q146 1 142.5 3.0Q139 5 134 10Q129 15 125.0 20.5Q121 26 119 36Q117 45 117.5 57.0Q118 69 117 80Q116 93 112.5 105.0Q109 117 110 125Q111 131 115.5 135.5Q120 140 121 145Q121 150 120.0 156.0Q119 162 117 167Q115 172 113.0 175.5Q111 179 110 186Q109 190 109.0 195.0Q109 200 109 205Q109 209 109.5 213.0Q110 217 110 222Q110 227 109.0 231.0Q108 235 108 240Q106 251 107.0 261.0Q108 271 108 281Q108 288 109.0 294.0Q110 300 110 305V326Q112 330 116.0 332.0Q120 334 124 336Q126 344 127.0 352.5Q128 361 125 370Q122 377 115.0 381.5Q108 386 105 392Q104 406 103.5 419.0Q103 432 101 449Q101 452 100.0 454.5Q99 457 98 460V478Q96 513 93.5 550.0Q91 587 91 623Q89 646 91 670Q92 674 92.0 679.5Q92 685 94 688Q97 693 104.0 695.0Q111 697 114 705Q119 703 124.0 706.5Q129 710 134 712Q136 712 139.5 711.5Q143 711 146 712Q151 713 157.0 713.0Q163 713 169 715Q183 717 187.0 713.5Q191 710 196 708Q202 704 213.5 702.5Q225 701 233 707Q241 711 245.5 716.5Q250 722 262 723Q267 724 272.0 723.5Q277 723 283 723Q286 723 289.5 724.0Q293 725 296 725Q307 727 316.5 725.5Q326 724 337 728Q345 726 353.5 728.0Q362 730 371 729Q382 729 393.5 727.5Q405 726 417 728Q449 733 470.5 733.5Q492 734 512 736Q523 738 535.5 738.5Q548 739 559 741Q564 743 568.5 743.0Q573 743 581 743Q585 744 589.0 745.0Q593 746 596 746Q601 745 605.0 742.0Q609 739 614 738Q619 737 623.0 738.0Q627 739 632 739Q637 739 641.0 738.0Q645 737 649 738Q652 738 654.0 740.5Q656 743 659 744Q664 744 668.0 741.0Q672 738 675 736Q679 734 683.0 732.5Q687 731 692 731Q705 729 714 738Q716 740 717.5 743.5Q719 747 721 750Q726 752 737.0 754.0Q748 756 756 756Q759 756 762.0 754.5Q765 753 768 753Q775 751 780.5 751.5Q786 752 794 750Q807 745 811.5 733.0Q816 721 818 711Q819 705 818.0 698.0Q817 691 818 686Q820 676 824.0 667.5Q828 659 828 649Q829 639 828.0 630.0Q827 621 822 615Q820 613 815.0 609.0Q810 605 808 604Q805 602 801.5 603.0Q798 604 793 603Q788 602 783.5 600.5Q779 599 774 598Q769 597 762.5 598.0Q756 599 751 602Q746 604 742.5 609.0Q739 614 733 615Q724 615 717.0 606.5Q710 598 702 595Q696 593 690.5 593.5Q685 594 676 594Q669 591 661.5 592.5Q654 594 646 593Q641 593 636.0 591.5Q631 590 625 590Q612 589 596.0 589.5Q580 590 567 588Q550 586 534.0 588.0Q518 590 502 588Q491 587 483.0 587.0Q475 587 465 586Q461 585 453.5 582.5Q446 580 444 578Q442 576 441.0 568.0Q440 560 440 556Q439 545 440.0 535.5Q441 526 442 515Q442 505 443.0 497.0Q444 489 445 478Q446 472 445.5 467.0Q445 462 446 459Q454 447 453.5 443.5Q453 440 455 437Q479 429 495.0 430.5Q511 432 528 431Q536 430 543.0 431.0Q550 432 557 431Q568 430 579.5 429.5Q591 429 603 431Q609 431 615.0 431.0Q621 431 626 432Q631 433 638.0 434.0Q645 435 652 434Q657 434 660.0 430.5Q663 427 668 425Q672 425 675.5 424.5Q679 424 683 425Q690 426 695.0 430.0Q700 434 706 436Q709 437 713.5 436.5Q718 436 723 436Q734 438 747.0 439.0Q760 440 774 439Q779 439 787.0 437.0Q795 435 800 431Q804 428 809.0 416.0Q814 404 815 396Q820 369 802 356Q805 343 800 329Q798 319 794.5 314.0Q791 309 784 304Q780 299 774.0 294.5Q768 290 760 296Q753 297 746.5 295.0Q740 293 734 294Q728 295 723.0 297.0Q718 299 712 298Q707 297 701.5 292.5Q696 288 691 286Q686 284 679.0 284.5Q672 285 665 284Q654 282 641.5 283.0Q629 284 616 282Q592 279 570 279Q550 281 537.5 279.5Q525 278 511 278Q506 276 501.0 277.0Q496 278 489 276Q481 276 474.0 278.0Q467 280 461 278Q454 274 453.0 274.5Q452 275 450 274Q445 271 444.0 262.5Q443 254 444 247Q445 239 449 228Q450 223 449.5 218.5Q449 214 449 209Q449 202 450.0 195.5Q451 189 452 182Q454 168 456.0 158.5Q458 149 471 146Q474 146 477.0 146.5Q480 147 484 148Q492 148 499.0 147.0Q506 146 512 145Q521 145 530.0 146.0Q539 147 548 147Q554 147 560.0 146.0Q566 145 571 146Q579 147 587.0 146.0Q595 145 604 147Q619 151 622.5 150.5Q626 150 630 150Q636 151 641.5 152.5Q647 154 652 154Q660 154 665.5 152.5Q671 151 676 152Q696 156 707.5 155.5Q719 155 730 156Q740 157 749.5 159.0Q759 161 767 161Q775 160 781.5 156.5Q788 153 797 152Q804 150 811 152Q816 154 820.5 157.5Q825 161 830 163Q844 168 855.5 163.5Q867 159 878 154Q887 143 888.0 128.5Q889 114 887 97ZM519 338Q511 337 505.0 334.5Q499 332 497 326Q502 323 508.0 320.0Q514 317 520 321Q524 324 523.5 329.5Q523 335 519 338ZM697 706Q695 700 689.0 698.5Q683 697 684 689Q688 685 693.5 685.5Q699 686 703.0 689.0Q707 692 708.5 697.0Q710 702 706 707ZM545 699Q540 697 535.0 696.0Q530 695 532 690Q534 686 541.0 684.5Q548 683 554 684Q561 685 568.0 687.0Q575 689 583 689Q591 689 599.0 686.0Q607 683 615 683Q621 683 627.0 685.0Q633 687 637.0 690.0Q641 693 641.5 696.5Q642 700 637 705Q617 704 601.0 704.0Q585 704 571 707Q564 705 558.5 703.0Q553 701 545 699ZM137 587Q141 586 143.0 587.5Q145 589 150 588Q152 591 154.0 593.0Q156 595 157 599Q159 606 157.0 615.0Q155 624 157 632Q159 635 163.5 638.0Q168 641 174 640Q195 637 202.0 646.5Q209 656 201 668Q196 668 192.0 667.5Q188 667 183 666Q164 669 153.5 666.0Q143 663 138 656Q134 640 134.5 622.0Q135 604 137 587ZM142 525Q146 520 154.5 520.5Q163 521 168 525Q169 529 169.5 533.5Q170 538 171 543Q167 549 162.5 549.0Q158 549 153.5 545.0Q149 541 146.0 535.0Q143 529 142 525ZM246 32Q246 37 242.5 39.0Q239 41 234.5 41.5Q230 42 224.5 42.0Q219 42 215 43Q206 47 202 53Q197 61 195.0 72.0Q193 83 182 84Q177 84 171.5 80.5Q166 77 165 74Q163 70 165.5 65.0Q168 60 169 56Q171 51 172.0 47.0Q173 43 175 39Q179 32 188.0 28.5Q197 25 207.5 24.0Q218 23 228.5 25.0Q239 27 246 32ZM429 308Q435 313 444.5 316.0Q454 319 464 321Q465 324 464.5 326.5Q464 329 463 332Q446 331 432.0 330.5Q418 330 402 325Q385 307 385 267Q388 260 395.0 260.0Q402 260 410 262Q412 271 411.5 280.5Q411 290 417 296Q424 300 425.5 303.0Q427 306 429 308ZM76 451Q73 452 71.5 446.5Q70 441 66 440Q57 437 55.5 445.5Q54 454 54 459Q54 465 54.5 473.5Q55 482 54 490Q54 494 52.5 498.5Q51 503 50 505Q50 518 49.0 521.0Q48 524 48 528Q46 538 47.0 547.5Q48 557 46 566Q44 571 42.5 576.0Q41 581 41 586Q41 595 45.0 602.0Q49 609 51 614Q60 608 65 603Q63 586 66.0 568.0Q69 550 69 531Q69 524 67.5 517.0Q66 510 68 503Q69 500 70.5 497.5Q72 495 71 492Q78 476 76 451ZM488 481Q492 474 493.0 470.0Q494 466 501 464Q503 457 501 453Q489 447 481.0 450.5Q473 454 469.0 462.0Q465 470 464.5 480.5Q464 491 467 500Q480 502 480.5 498.0Q481 494 483 488ZM828 345Q834 345 838.0 336.0Q842 327 843 322Q844 317 842.5 311.0Q841 305 840 300Q839 280 829.0 277.5Q819 275 809 270Q802 270 795.0 267.5Q788 265 780.5 263.5Q773 262 766.5 262.0Q760 262 755 267Q759 275 761.5 277.0Q764 279 767 281Q769 282 773.0 284.0Q777 286 779 286Q792 284 797.0 285.5Q802 287 807 289Q809 295 811.5 303.0Q814 311 815 319Q816 324 815.5 327.5Q815 331 817 335Q818 337 822.0 341.0Q826 345 828 345ZM514 239Q508 237 503.0 231.5Q498 226 496 223Q493 215 492.5 207.5Q492 200 484 199Q476 198 473.5 209.0Q471 220 470 228Q470 231 469.0 234.0Q468 237 468 239Q469 247 473.5 250.5Q478 254 483 258Q498 257 512.5 259.0Q527 261 538 258Q542 251 536.0 246.0Q530 241 523 240ZM476 181Q476 186 480.0 189.0Q484 192 488.5 192.5Q493 193 496.5 190.0Q500 187 499 181Q491 176 487.0 175.5Q483 175 479 174ZM207 -43Q213 -43 219.5 -42.5Q226 -42 232 -44Q238 -53 224.5 -56.5Q211 -60 199 -58Q192 -57 186.5 -56.0Q181 -55 176 -56Q164 -59 156.5 -58.5Q149 -58 142 -57Q130 -57 126 -48Q120 -46 114.0 -45.5Q108 -45 104 -40Q97 -40 91.5 -38.5Q86 -37 84 -29Q84 -25 85.0 -20.5Q86 -16 87 -11Q87 -6 85.5 0.0Q84 6 84 12Q84 18 86.5 25.0Q89 32 89 35Q98 38 98.0 29.0Q98 20 97 12Q102 6 108.5 1.0Q115 -4 120 -10Q125 -15 127.5 -21.0Q130 -27 134 -33Q144 -34 144.5 -36.0Q145 -38 147 -40Q152 -42 156.5 -41.5Q161 -41 166 -43Q180 -47 189.5 -45.0Q199 -43 207 -43ZM707 -3Q712 -4 715.5 -6.5Q719 -9 724 -10Q727 -15 726 -24Q715 -31 702.0 -29.0Q689 -27 677 -29Q670 -29 663.0 -31.0Q656 -33 649 -34Q642 -31 634.0 -33.5Q626 -36 620 -31Q631 -24 637.5 -21.5Q644 -19 652 -17Q660 -15 667.0 -14.5Q674 -14 681 -11Q687 -8 693.5 -5.0Q700 -2 707 -3Z"/></g><g transform="translate(2545.953,234.000) scale(0.250977,-0.250977)"><path d="M85 758Q86 753 82.0 750.5Q78 748 72.5 747.0Q67 746 61.0 747.0Q55 748 52 750Q48 757 47.5 760.5Q47 764 58 766Q66 768 74.5 767.0Q83 766 85 758ZM35 762Q37 760 38.0 757.0Q39 754 37 751Q29 746 20.5 745.5Q12 745 7 740Q2 736 -0.5 729.0Q-3 722 -5 714Q-5 712 -6.5 709.0Q-8 706 -8 703Q-10 694 -9.0 684.5Q-8 675 -14 668Q-20 670 -20.0 675.0Q-20 680 -22 685Q-23 689 -25.0 692.0Q-27 695 -28 699Q-33 715 -29.5 729.0Q-26 743 -16 754Q-5 758 6.5 760.5Q18 763 35 762ZM759 649Q757 643 754.0 638.5Q751 634 747.0 629.5Q743 625 740.0 619.5Q737 614 737 607Q729 599 718.0 599.0Q707 599 695 598Q690 598 685.5 596.5Q681 595 676 594Q656 594 635.0 595.0Q614 596 593 595Q585 592 574.5 592.5Q564 593 557 591Q553 578 555.0 564.5Q557 551 552 539Q550 535 547.0 531.5Q544 528 542 524Q536 513 530.0 498.0Q524 483 527 466Q529 458 531.5 450.0Q534 442 539 435Q547 428 548.0 425.5Q549 423 550 421Q553 416 555.5 410.5Q558 405 559 397Q560 389 560.5 380.0Q561 371 561 361Q562 355 562.0 348.5Q562 342 562 337Q561 325 560.0 323.0Q559 321 558 319Q557 317 557.0 313.5Q557 310 556 308Q554 302 552.0 292.0Q550 282 551 273Q551 268 551.5 262.5Q552 257 554 252Q555 249 557.0 246.5Q559 244 560 241Q559 231 560.0 228.5Q561 226 561 224Q560 209 561.0 200.5Q562 192 560 184Q566 158 566.0 129.5Q566 101 570 75Q572 60 569.5 53.5Q567 47 572 41Q571 35 570.5 30.0Q570 25 565 20Q560 18 557.0 16.5Q554 15 547 16Q542 16 539.0 19.0Q536 22 531 22Q527 22 523.0 20.0Q519 18 516 16Q512 14 508.5 9.5Q505 5 500 3Q492 4 484.5 2.5Q477 1 469 1Q463 1 455.5 2.0Q448 3 440 2Q435 1 430.0 0.0Q425 -1 420 -2Q411 -3 401.5 -2.5Q392 -2 384 -3Q375 -3 366.0 -4.0Q357 -5 348 -7Q336 -9 323.5 -8.0Q311 -7 299 -7Q293 -7 289.5 -7.0Q286 -7 281 -5Q266 2 263.5 7.0Q261 12 258.5 16.5Q256 21 251.5 24.5Q247 28 239 28Q233 36 229 39Q224 48 224.0 59.0Q224 70 223 81Q223 95 221.5 108.5Q220 122 219 136Q218 143 219.0 150.0Q220 157 220 164Q219 173 219.0 182.5Q219 192 219 201Q220 206 220.5 211.5Q221 217 221 222Q221 249 219.0 275.0Q217 301 216 327Q216 342 217.5 359.5Q219 377 224 388Q226 393 228.0 397.0Q230 401 232 406Q235 414 237.0 425.5Q239 437 234 445Q232 451 229.0 454.0Q226 457 224 460Q218 471 216.0 485.5Q214 500 215 514Q217 535 216 546Q216 556 216.5 567.0Q217 578 211 586Q203 588 194.5 586.0Q186 584 177 584Q175 584 172.0 585.0Q169 586 166 586Q163 586 160.0 585.0Q157 584 154 584Q149 583 146.0 584.0Q143 585 139 584Q136 584 132.5 583.0Q129 582 125 582Q119 581 112.5 581.5Q106 582 99 581Q94 581 88.5 579.5Q83 578 78 578Q64 581 59.5 580.5Q55 580 50 581Q43 583 38.0 584.0Q33 585 27 586Q18 594 19.0 610.5Q20 627 19 639Q19 643 18.5 646.0Q18 649 17 653Q16 665 15.5 675.0Q15 685 18 694Q22 706 26.5 713.5Q31 721 40 726Q45 726 49.0 727.5Q53 729 58 729Q76 727 83.0 729.0Q90 731 97 727Q117 732 137 729Q143 729 149.0 727.5Q155 726 162 727Q177 728 194.5 728.0Q212 728 228 730Q235 731 241.5 730.0Q248 729 254 729Q263 730 273.0 729.0Q283 728 291 723Q296 725 300.0 723.0Q304 721 309 720Q321 720 323.5 719.0Q326 718 328 718Q346 720 355.0 721.0Q364 722 372 727Q383 728 395.0 728.0Q407 728 416 733Q427 735 439.0 734.5Q451 734 463 733Q471 732 478.0 734.0Q485 736 493 736Q498 736 501.0 735.0Q504 734 508 734Q520 737 525.5 735.5Q531 734 537 736Q539 734 541.0 732.0Q543 730 545 728Q550 726 554.0 725.5Q558 725 563 724Q567 724 571.0 722.0Q575 720 581 721Q591 727 593.0 726.5Q595 726 597 727Q600 729 602.0 732.5Q604 736 608 738Q610 739 616.0 739.5Q622 740 625 740Q630 740 634.5 739.5Q639 739 644 739Q648 739 651.5 740.5Q655 742 659 743Q664 743 667.5 742.0Q671 741 675 741Q687 742 700.0 744.0Q713 746 723 738Q727 740 729.0 738.0Q731 736 734 734Q743 730 745.0 724.5Q747 719 750 714Q757 696 758 677Q760 671 760.0 662.5Q760 654 759 649ZM127 624Q128 627 128.5 630.0Q129 633 129 638Q124 641 119.5 640.5Q115 640 110.0 638.5Q105 637 100.0 636.0Q95 635 91 637Q88 640 86.0 646.0Q84 652 81.5 657.5Q79 663 75.5 666.0Q72 669 66 666Q61 664 60.0 659.0Q59 654 59.0 648.0Q59 642 59.0 635.5Q59 629 58 625Q65 623 70.0 618.5Q75 614 82 612Q93 610 104.0 616.5Q115 623 127 624ZM201 632Q203 636 202.5 641.5Q202 647 198 648Q191 646 182.0 642.5Q173 639 174 629Q180 626 188.0 627.5Q196 629 201 632ZM372 40Q373 44 374.0 47.0Q375 50 376 54Q373 59 368.0 61.0Q363 63 357 67Q349 69 343.0 65.0Q337 61 331 61Q322 62 316.5 68.5Q311 75 300 73Q294 71 291.5 65.0Q289 59 293 52Q296 48 301.5 45.0Q307 42 312 38Q315 36 316.5 33.5Q318 31 321 30Q325 28 329.5 29.0Q334 30 336 30Q344 34 354.0 34.5Q364 35 372 40ZM507 291Q501 296 497.5 288.5Q494 281 496 273Q504 266 506.5 269.0Q509 272 510.0 276.0Q511 280 510.0 284.5Q509 289 507 291ZM515 125Q518 151 512.5 175.5Q507 200 505 223Q502 226 497.5 229.0Q493 232 489 232Q481 232 479.5 222.0Q478 212 480 203Q481 194 481.5 185.0Q482 176 484 167Q488 150 487.0 140.5Q486 131 488 123Q489 118 493.5 110.0Q498 102 502 102Q508 102 511.0 111.0Q514 120 515 125ZM698 663Q707 663 711.0 670.5Q715 678 714 686Q712 695 712.5 696.0Q713 697 712 699Q711 704 705.5 707.0Q700 710 693 709Q688 708 681.5 707.0Q675 706 673 705Q665 700 667.5 692.0Q670 684 675 679Q686 680 688.0 672.0Q690 664 698 663ZM786 658Q787 650 785.0 637.5Q783 625 785 612Q787 605 787.5 595.5Q788 586 783 581Q780 579 776.5 576.0Q773 573 769 570Q766 568 762.0 564.5Q758 561 754 561Q749 561 743.0 564.0Q737 567 732 566Q729 565 726.0 563.0Q723 561 721 562Q716 562 714.0 568.5Q712 575 714 580Q718 581 720.5 584.0Q723 587 727 588Q732 589 735.5 587.5Q739 586 744 587Q748 588 751.5 589.5Q755 591 757 593Q764 598 769.5 607.0Q775 616 775 626Q775 634 773.0 642.5Q771 651 771 662Q773 664 774.0 667.0Q775 670 777 672Q782 673 784.0 668.0Q786 663 786 658ZM602 387Q600 382 593.0 380.5Q586 379 583 384Q582 398 581.5 411.0Q581 424 578 436Q569 440 565.0 449.0Q561 458 560.0 468.5Q559 479 561.5 490.0Q564 501 569 508Q570 516 572.0 521.5Q574 527 575 537Q575 543 575.0 548.5Q575 554 579 559Q589 558 591.5 550.0Q594 542 593 530Q592 527 591.0 524.5Q590 522 590 519Q589 511 590.5 503.5Q592 496 591 490Q598 467 596.5 447.0Q595 427 598 407Q599 402 600.5 397.0Q602 392 602 387ZM597 333Q591 333 588.5 339.0Q586 345 587.0 352.0Q588 359 592.0 363.0Q596 367 603 361Q608 356 606.5 345.0Q605 334 597 333ZM252 -25Q258 -29 265.5 -28.0Q273 -27 278 -35Q260 -45 248.5 -43.0Q237 -41 228 -39Q223 -37 216.5 -31.0Q210 -25 208 -20Q202 -9 200.5 3.5Q199 16 191 25Q193 29 191.5 33.0Q190 37 198 36Q202 28 209.0 24.0Q216 20 215 7Q220 5 224.5 3.5Q229 2 232 0Q237 -4 238.5 -9.0Q240 -14 244 -18ZM329 -33Q338 -31 344.5 -29.0Q351 -27 359 -29Q365 -35 360.5 -39.5Q356 -44 347.5 -46.0Q339 -48 329.0 -47.5Q319 -47 315 -44Q310 -46 305.0 -45.0Q300 -44 295 -42Q294 -35 299.5 -35.0Q305 -35 310 -34Q315 -34 320.0 -34.0Q325 -34 329 -33Z"/></g></g></svg>